<?xml version="1.0" standalone="no"?>
<!DOCTYPE svg PUBLIC "-//W3C//DTD SVG 20010904//EN"
 "http://www.w3.org/TR/2001/REC-SVG-20010904/DTD/svg10.dtd">
<svg version="1.0" xmlns="http://www.w3.org/2000/svg"
 width="500.000000pt" height="500.000000pt" viewBox="0 0 500.000000 500.000000"
 preserveAspectRatio="xMidYMid meet">

<g transform="translate(0.000000,500.000000) scale(0.100000,-0.100000)"
fill="#000000" stroke="none">
<path d="M2403 4483 c3 -5 -49 -9 -115 -10 -71 -1 -126 -7 -134 -14 -7 -6 -17
-8 -22 -5 -18 11 -270 -60 -379 -107 -70 -30 -91 -47 -57 -47 8 0 13 -4 9 -9
-3 -5 -1 -13 5 -16 8 -5 7 -11 -1 -21 -9 -11 -6 -16 16 -24 31 -12 47 -6 38
15 -3 8 0 15 6 15 6 0 11 -4 11 -10 0 -5 5 -10 10 -10 6 0 10 6 9 13 -4 32 1
37 26 25 26 -11 49 -3 28 10 -8 5 -9 13 -3 22 5 8 12 11 16 8 8 -8 34 14 27
25 -2 4 0 7 6 7 5 0 13 -4 16 -10 8 -12 55 -13 74 -1 11 7 10 11 -5 20 -16 9
-16 10 -3 11 9 0 22 -6 29 -14 12 -15 40 -11 40 5 0 4 -8 5 -17 2 -17 -7 -17
-6 -1 11 10 9 23 14 29 10 7 -4 9 -3 6 3 -7 11 52 28 61 18 3 -3 -2 -5 -11 -5
-10 0 -17 -4 -17 -10 0 -14 12 -12 40 7 22 16 23 16 17 0 -3 -9 -2 -17 2 -17
5 0 11 7 15 15 3 8 15 15 26 15 11 0 20 -7 20 -15 0 -8 5 -15 10 -15 6 0 10 7
10 15 0 8 4 15 8 15 5 0 8 -15 7 -32 -2 -30 1 -33 27 -32 35 1 50 14 17 15
-21 1 -20 2 5 8 17 3 29 10 27 14 -1 4 8 17 21 27 15 13 18 19 9 20 -14 0 -7
15 7 15 4 0 13 4 20 9 8 5 18 4 25 -3 14 -14 47 -15 47 -1 0 6 7 10 16 10 11
0 14 -6 9 -20 -4 -11 -2 -20 4 -20 6 0 11 5 11 10 0 6 5 10 10 10 6 0 10 -9
10 -21 0 -15 5 -19 15 -15 19 7 47 -3 39 -15 -3 -5 2 -9 10 -9 9 0 16 -4 16
-9 0 -5 9 -11 20 -14 30 -8 24 -27 -7 -27 -25 -1 -24 -2 12 -15 47 -17 56 -18
35 -5 -11 7 -11 10 -2 10 15 0 32 -39 25 -58 -3 -7 0 -19 7 -27 9 -11 10 -18
1 -28 -6 -8 -8 -17 -4 -20 3 -4 1 -7 -5 -7 -7 0 -10 11 -7 28 4 21 0 31 -19
44 -23 17 -24 17 -29 -8 -2 -14 2 -31 10 -40 8 -8 10 -14 4 -14 -6 0 -11 -4
-11 -10 0 -5 7 -7 15 -4 8 4 15 2 15 -4 0 -12 -24 -22 -51 -22 -10 0 -19 -5
-19 -11 0 -6 9 -8 22 -4 17 6 20 4 15 -10 -4 -9 -7 -19 -7 -21 0 -3 -4 -2 -10
1 -11 7 -13 -24 -4 -50 5 -12 9 -13 14 -5 4 7 10 -2 14 -23 6 -30 10 -34 28
-29 17 4 20 2 15 -11 -6 -15 3 -22 26 -18 7 1 11 -15 8 -32 -1 -5 2 -6 6 -4 5
3 14 -1 21 -9 11 -12 8 -14 -15 -15 -17 -1 -21 -3 -10 -6 10 -3 14 -9 10 -16
-4 -6 -7 -31 -8 -54 -1 -47 18 -64 44 -38 9 9 11 15 4 15 -6 0 -9 9 -6 19 3
14 11 18 28 15 32 -6 73 -23 57 -23 -16 -1 -11 -20 11 -43 20 -22 28 -23 21
-4 -6 17 6 25 40 28 24 2 24 3 9 20 -9 10 -11 18 -5 18 6 0 14 -5 17 -10 4 -6
10 -8 14 -6 4 3 13 0 21 -6 13 -8 12 -9 -2 -5 -17 6 -28 -11 -28 -43 0 -25 28
-33 35 -10 3 10 12 17 18 14 14 -5 57 31 57 48 0 13 -49 107 -67 129 -8 9 -13
20 -11 25 5 15 -44 134 -54 134 -6 0 -8 6 -5 14 3 7 0 19 -6 25 -6 6 -7 11 -2
11 4 0 -2 9 -15 20 l-23 20 24 1 c17 1 19 3 7 6 -10 2 -18 9 -18 14 0 5 -6 9
-13 9 -11 0 -67 55 -67 66 0 15 -67 64 -90 66 -18 1 -38 21 -34 32 3 8 -1 14
-8 13 -46 -2 -72 6 -94 28 -14 14 -41 32 -61 40 -36 15 -118 21 -110 8z m311
-201 c2 -4 1 -14 -3 -21 -6 -9 -10 -7 -14 8 -5 20 7 29 17 13z m12 -66 c0 -19
-4 -38 -9 -42 -11 -11 -12 33 -2 64 8 22 13 13 11 -22z m-8 -125 c11 -7 10 -9
-3 -15 -9 -3 -13 -11 -9 -17 4 -8 3 -9 -5 -5 -9 6 -9 11 -1 21 8 10 7 14 -2
18 -7 3 -8 6 -3 6 6 0 16 -3 23 -8z m92 -53 c0 -5 -4 -8 -10 -8 -5 0 -10 10
-10 23 0 18 2 19 10 7 5 -8 10 -18 10 -22z m-75 -5 c-2 -10 -4 -20 -4 -23 -1
-3 -5 2 -10 10 -10 15 -6 30 9 30 4 0 7 -8 5 -17z m58 -44 c6 -4 4 -15 -5 -28
-16 -23 -28 -18 -28 11 0 11 -4 17 -9 13 -5 -3 -12 -1 -16 5 -3 6 4 14 17 19
15 6 24 5 27 -3 2 -6 8 -14 14 -17z m17 15 c0 -8 -5 -12 -10 -9 -6 4 -8 11 -5
16 9 14 15 11 15 -7z m30 -4 c0 -5 -4 -10 -10 -10 -5 0 -10 5 -10 10 0 6 5 10
10 10 6 0 10 -4 10 -10z m-120 -4 c0 -3 -4 -8 -10 -11 -5 -3 -10 -1 -10 4 0 6
5 11 10 11 6 0 10 -2 10 -4z m114 -22 c26 -10 19 -34 -11 -35 -24 -2 -25 -2
-5 -6 12 -2 22 -11 22 -19 0 -17 -26 -19 -33 -1 -4 9 -8 8 -16 -3 -5 -8 -13
-11 -17 -8 -3 4 1 14 9 23 9 8 19 24 22 35 7 22 7 22 29 14z m85 -66 c-4 -22
12 -48 30 -48 9 0 25 -8 36 -17 19 -15 18 -15 -15 -9 -19 3 -40 12 -45 20 -6
7 -21 17 -34 21 -21 6 -23 5 -18 -15 4 -16 2 -20 -10 -16 -8 3 -20 6 -25 6 -6
0 -8 3 -5 7 4 3 0 11 -9 17 -13 10 -13 12 5 13 12 1 21 -4 21 -13 0 -11 4 -10
18 4 11 9 17 20 15 24 -2 3 5 9 14 11 10 3 19 5 21 6 2 0 2 -5 1 -11z m-126
-34 c-3 -9 -9 -11 -12 -6 -3 5 -15 12 -26 15 -13 3 -9 5 12 6 26 1 31 -2 26
-15z"/>
<path d="M2425 4420 c3 -5 15 -10 26 -10 11 0 17 5 14 10 -3 6 -15 10 -26 10
-11 0 -17 -4 -14 -10z"/>
<path d="M2280 4320 c0 -5 5 -10 11 -10 5 0 7 5 4 10 -3 6 -8 10 -11 10 -2 0
-4 -4 -4 -10z"/>
<path d="M1580 4267 c-140 -71 -151 -83 -103 -114 19 -13 28 -14 31 -5 2 7 9
9 15 5 7 -3 9 -3 5 2 -4 4 -3 14 3 22 13 15 33 18 24 4 -3 -5 -1 -12 5 -16 6
-4 10 5 10 20 0 20 4 26 15 21 9 -3 15 -1 14 7 -3 27 2 35 26 41 16 4 25 13
25 26 0 11 -1 20 -2 20 -2 -1 -32 -15 -68 -33z m-21 -48 c-16 -10 -23 -4 -14
10 3 6 11 8 17 5 6 -4 5 -9 -3 -15z"/>
<path d="M1613 4224 c-10 -27 11 -35 24 -8 9 19 8 24 -3 24 -8 0 -17 -7 -21
-16z"/>
<path d="M1845 4230 c-3 -5 -1 -10 4 -10 6 0 11 5 11 10 0 6 -2 10 -4 10 -3 0
-8 -4 -11 -10z"/>
<path d="M2444 4231 c4 -5 2 -20 -3 -33 -11 -29 3 -43 49 -44 19 -1 36 -6 38
-13 2 -6 11 -11 20 -10 11 0 12 2 5 6 -7 2 -13 11 -13 18 0 8 -9 19 -20 25
-11 6 -20 7 -20 2 0 -5 -7 -9 -15 -9 -14 0 -20 22 -16 55 1 6 -5 12 -14 12 -9
0 -14 -4 -11 -9z"/>
<path d="M1420 4169 c0 -5 5 -7 10 -4 6 3 10 8 10 11 0 2 -4 4 -10 4 -5 0 -10
-5 -10 -11z"/>
<path d="M1385 4141 c-6 -11 13 -26 22 -17 4 3 1 6 -6 6 -7 0 -9 5 -6 10 3 6
4 10 1 10 -3 0 -7 -4 -11 -9z"/>
<path d="M1345 4103 c-5 -21 -8 -24 -15 -12 -8 12 -12 11 -27 -3 -16 -17 -16
-18 0 -18 9 0 17 -4 17 -10 0 -6 -9 -6 -24 0 -17 6 -29 5 -42 -6 -11 -9 -13
-13 -6 -9 6 3 12 1 12 -4 0 -6 -12 -11 -26 -11 -22 0 -25 -4 -21 -20 4 -16 1
-20 -11 -15 -24 7 -211 -184 -306 -312 -163 -221 -282 -478 -346 -748 -40
-169 -52 -504 -25 -718 37 -302 178 -648 361 -892 108 -144 128 -166 147 -161
12 3 17 0 14 -8 -7 -18 73 -108 89 -102 8 3 11 0 7 -9 -3 -9 3 -18 13 -22 11
-3 33 -21 49 -40 77 -84 420 -296 482 -297 12 0 20 -3 18 -7 -3 -3 7 -11 21
-18 31 -14 37 -14 29 -1 -10 15 5 12 22 -6 9 -8 22 -13 29 -10 8 3 14 -1 14
-9 0 -8 8 -15 18 -15 10 0 37 -9 60 -20 24 -12 47 -18 53 -15 5 4 15 2 22 -3
19 -16 69 -20 95 -8 20 8 26 7 34 -8 8 -14 12 -15 18 -6 5 8 15 10 26 5 11 -5
23 -7 28 -6 5 1 5 -6 2 -16 -4 -9 -4 -15 -1 -11 4 3 20 2 36 -4 25 -8 34 -7
50 8 17 15 19 15 14 2 -10 -25 77 -32 279 -24 226 9 209 6 189 28 -12 14 -19
15 -30 7 -10 -9 -13 -7 -14 7 -1 14 -3 12 -8 -6 -5 -19 -8 -21 -13 -9 -3 9 -3
21 1 28 9 14 53 0 79 -25 13 -13 28 -15 76 -10 68 7 140 29 129 39 -3 4 1 7
11 7 10 0 14 5 10 11 -4 7 -1 10 7 7 8 -3 13 -11 12 -17 -2 -6 1 -11 6 -11 12
0 25 19 28 40 1 8 7 16 12 18 6 2 11 13 11 24 0 17 3 18 15 8 13 -11 15 -8 15
19 0 17 5 31 11 31 6 0 8 -12 5 -33 -3 -17 -3 -26 0 -20 3 7 14 13 23 13 14 0
17 -6 13 -27 -5 -25 -4 -27 11 -14 13 10 17 11 17 1 0 -7 12 0 26 15 18 19 28
24 33 16 6 -8 15 -8 39 0 33 11 46 33 15 23 -17 -5 -17 -5 0 6 9 6 22 8 27 5
6 -3 10 2 11 12 0 16 1 17 7 1 6 -16 12 -15 65 9 41 19 56 31 52 41 -4 10 0
13 13 10 16 -5 19 1 18 34 0 28 -3 35 -11 26 -13 -17 -55 -11 -55 7 0 7 6 16
13 18 7 4 6 6 -4 6 -16 1 -33 -34 -20 -42 3 -2 -1 -2 -9 1 -8 2 -20 5 -27 5
-7 0 -10 4 -7 9 3 4 -5 8 -16 8 -13 0 -24 -8 -27 -20 -7 -25 -25 -27 -21 -2 2
11 -3 17 -14 16 -14 -1 -16 2 -7 18 7 13 14 16 22 10 38 -29 59 10 29 53 -9
13 -13 15 -11 5 4 -35 0 -45 -13 -28 -9 11 -19 13 -33 8 l-20 -9 20 0 c11 -1
16 -5 10 -9 -23 -16 -43 -59 -35 -73 6 -8 4 -16 -3 -21 -8 -5 -5 -8 8 -8 19
-1 19 -1 2 -14 -10 -8 -13 -16 -7 -18 6 -2 12 -17 13 -33 2 -24 -2 -30 -19
-30 -11 0 -28 -6 -37 -14 -15 -12 -17 -11 -17 3 0 9 -6 17 -12 17 -7 1 1 4 17
8 17 4 33 3 36 -2 4 -5 10 0 14 12 4 13 4 25 1 28 -3 4 -6 0 -6 -8 0 -14 -14
-16 -67 -10 -7 0 -13 9 -13 18 0 15 -2 14 -16 -3 -15 -18 -15 -18 -9 4 4 13 2
22 -4 22 -6 0 -11 -8 -11 -17 0 -15 -4 -13 -20 7 -10 14 -15 26 -10 28 5 2 6
10 3 18 -7 19 14 18 25 -2 7 -13 13 -14 28 -6 18 11 18 11 -3 12 -14 0 -23 6
-23 16 0 12 3 14 13 6 8 -7 16 -6 26 5 12 13 11 14 -7 9 -14 -5 -28 0 -42 14
l-21 21 22 20 c24 20 21 22 -28 19 -21 -1 -35 5 -42 17 -11 19 -15 8 -12 -27
1 -13 0 -13 -11 1 -9 11 -21 14 -40 8 -20 -5 -28 -4 -28 6 0 8 7 11 20 8 25
-7 25 2 0 34 -11 14 -20 32 -20 41 0 11 -3 12 -13 4 -7 -6 -29 -13 -49 -16
-32 -4 -35 -2 -31 17 4 22 4 22 -9 -1 -13 -20 -16 -21 -33 -7 -14 10 -16 14
-6 15 8 0 12 2 9 5 -3 3 -17 1 -32 -4 -17 -7 -26 -7 -26 -1 0 6 8 10 18 11 10
0 12 3 5 6 -7 2 -13 12 -13 21 0 13 -4 12 -20 -6 -20 -21 -56 -20 -43 2 11 16
10 30 -2 39 -7 6 -6 10 3 14 17 7 15 26 -2 20 -21 -8 -27 41 -7 60 18 18 18
23 1 33 -14 9 -23 60 -10 60 5 0 10 7 10 15 0 8 -4 15 -9 15 -11 0 -41 -57
-41 -78 0 -12 -3 -12 -15 -2 -19 16 -19 25 0 44 14 13 11 14 -20 9 -20 -3 -35
-1 -35 4 0 6 -11 8 -25 5 -15 -2 -25 0 -25 7 0 7 5 9 10 6 6 -3 10 -1 10 4 0
6 -7 11 -15 11 -9 0 -12 6 -9 15 4 8 1 15 -5 15 -6 0 -11 -5 -11 -11 0 -5 -5
-7 -11 -4 -6 4 -8 13 -5 21 3 8 0 11 -9 7 -8 -3 -13 -9 -10 -13 3 -4 -5 -10
-16 -13 -11 -3 -23 -15 -26 -26 -3 -12 -12 -21 -20 -21 -10 0 -12 -6 -8 -19 7
-22 -25 -59 -70 -81 -16 -8 -34 -16 -39 -18 -4 -3 -5 5 -1 17 8 26 -13 29 -22
4 -3 -10 -13 -26 -21 -35 -8 -9 -12 -23 -9 -30 4 -8 6 -7 6 5 1 19 15 21 46 6
17 -8 15 -8 -7 -4 -32 6 -32 6 -18 -30 8 -22 7 -27 -13 -35 -12 -5 -18 -9 -14
-9 4 -1 2 -7 -5 -14 -10 -12 -16 -11 -32 5 -18 17 -22 17 -32 4 -6 -9 -15 -12
-19 -8 -5 4 -5 1 -1 -5 4 -7 15 -13 24 -13 13 0 14 -2 3 -9 -11 -7 -11 -9 0
-14 11 -4 10 -8 -5 -19 -12 -10 -15 -17 -8 -22 6 -3 13 -2 17 4 3 5 12 10 18
10 7 0 6 -4 -3 -10 -8 -5 -11 -12 -7 -16 4 -4 13 -2 19 4 21 21 26 13 17 -29
-5 -22 -6 -46 -2 -52 4 -7 8 -16 8 -21 0 -5 6 -11 13 -14 8 -2 10 2 6 15 -6
17 -6 17 8 -1 8 -10 20 -16 25 -13 6 4 13 1 16 -7 7 -18 -20 -30 -29 -14 -5 8
-10 5 -14 -7 -6 -18 -36 -29 -53 -18 -5 3 -4 9 3 13 17 11 -14 82 -33 74 -11
-4 -14 3 -13 28 0 24 -4 34 -17 36 -10 2 -17 0 -15 -5 4 -16 -14 -53 -23 -48
-5 4 -9 2 -9 -4 0 -15 39 -34 55 -27 8 3 17 1 20 -5 4 -5 10 -7 15 -4 9 5 -5
-53 -15 -63 -3 -3 -33 -7 -67 -8 -35 -2 -65 -4 -68 -4 -3 -1 -19 -1 -36 0 -18
1 -35 -3 -38 -8 -3 -6 -16 -8 -29 -5 -12 3 -19 2 -15 -2 4 -4 0 -14 -10 -22
-16 -12 -16 -13 2 -6 19 6 19 6 3 -18 -10 -13 -23 -24 -30 -24 -6 0 -11 -8 -9
-18 4 -21 -24 -23 -32 -1 -9 23 -8 26 7 18 8 -5 7 -2 -2 9 -7 10 -21 16 -30
15 -9 -2 -17 4 -17 12 -1 8 -2 20 -3 27 0 6 -10 9 -21 6 -10 -3 -33 1 -49 8
-24 11 -28 16 -18 28 10 12 9 13 -1 7 -7 -4 -18 -3 -25 2 -7 6 -33 13 -59 17
-27 4 -48 11 -48 16 0 5 -6 9 -14 9 -7 0 -19 6 -26 14 -6 8 -17 13 -24 10 -7
-3 -19 2 -26 10 -7 9 -17 13 -24 9 -18 -12 -48 -14 -41 -3 3 5 -2 10 -12 10
-10 0 -31 9 -48 20 -16 11 -39 20 -50 20 -43 1 -94 69 -98 129 -1 26 -6 37
-15 34 -7 -3 -14 7 -18 26 -6 28 -49 69 -67 63 -5 -1 -6 2 -2 8 3 5 1 10 -4
10 -6 0 -11 11 -11 25 0 18 5 25 19 25 11 0 21 -5 23 -10 2 -6 20 -17 41 -24
21 -7 38 -16 38 -19 -4 -43 15 -52 25 -12 8 32 22 32 30 0 3 -14 13 -25 23
-25 9 0 22 -5 28 -11 8 -8 13 -8 17 0 4 6 0 11 -9 11 -11 0 -15 5 -11 15 3 8
1 15 -4 15 -10 0 -60 47 -60 57 0 3 11 2 25 -1 18 -5 25 -2 25 9 0 8 6 15 13
16 6 0 -3 7 -21 15 -18 8 -30 19 -27 24 3 6 1 10 -4 10 -6 0 -11 7 -11 15 0 8
-9 15 -20 15 -11 0 -20 7 -20 16 0 11 6 14 21 9 16 -5 19 -4 14 5 -4 7 -1 16
6 21 10 6 8 9 -8 9 -13 0 -23 5 -23 10 0 6 -5 10 -11 10 -5 0 -8 -4 -5 -9 4
-5 -4 -7 -16 -3 -21 5 -21 5 3 15 l24 9 -27 8 c-37 11 -49 20 -43 31 4 5 13 3
21 -6 9 -8 28 -15 44 -15 16 0 30 -4 32 -10 5 -14 46 -1 53 17 4 12 2 13 -8 5
-16 -14 -31 -3 -34 26 -2 17 2 22 19 22 16 0 19 3 11 11 -13 13 -63 4 -63 -11
0 -6 4 -10 10 -10 5 0 7 -7 3 -16 -5 -15 -7 -15 -15 0 -5 9 -14 14 -19 10 -6
-4 -6 -11 2 -20 9 -11 8 -14 -3 -14 -7 0 -21 13 -31 29 -16 28 -16 29 6 45 12
9 16 14 9 11 -17 -9 -15 0 5 16 14 12 16 12 8 0 -6 -11 -4 -13 9 -8 10 4 20 7
22 7 2 0 4 7 4 16 0 11 -5 14 -16 10 -28 -11 -36 5 -12 26 l23 21 -27 -7 c-23
-5 -26 -4 -21 11 6 15 3 14 -23 -3 -30 -21 -64 -21 -64 -1 0 7 -4 6 -10 -3 -6
-9 -5 -17 3 -22 19 -11 2 -20 -27 -12 -16 4 -26 13 -26 24 0 10 -9 22 -21 25
-14 5 -19 13 -16 26 4 15 0 19 -24 19 -16 0 -29 5 -29 10 0 6 5 10 11 10 6 0
9 7 5 15 -3 9 6 20 27 30 39 18 65 54 47 65 -9 5 -9 9 -1 14 6 4 11 13 11 19
0 8 -3 8 -8 2 -13 -18 -50 -16 -48 3 1 12 -7 18 -29 19 -16 1 -22 -1 -12 -3 9
-3 17 -10 17 -15 0 -6 -8 -5 -20 1 -24 13 -18 30 10 30 13 0 17 5 14 15 -4 8
-13 15 -22 15 -12 0 -13 3 -5 11 9 9 9 16 0 30 -14 23 -6 32 30 31 15 0 41 7
56 15 16 8 36 12 45 10 15 -4 15 -5 0 -6 -25 -1 -22 -18 3 -24 12 -3 18 -10
14 -16 -3 -6 -2 -11 4 -11 6 0 8 -7 5 -15 -4 -8 -13 -15 -22 -15 -13 0 -12 -3
4 -15 14 -11 15 -14 4 -15 -13 0 -13 -1 0 -10 13 -8 13 -10 -1 -10 -18 0 -34
-29 -23 -39 4 -3 9 0 11 7 6 17 33 15 33 -3 0 -8 -4 -15 -10 -15 -5 0 -7 -6
-5 -12 6 -14 60 -16 88 -4 23 11 22 35 -4 44 l-20 8 20 18 c11 10 18 23 15 28
-3 5 2 15 11 22 20 15 12 56 -11 56 -8 0 -14 5 -14 11 0 6 7 8 16 5 13 -5 14
-4 6 7 -7 8 -9 17 -5 20 11 12 41 8 46 -5 4 -10 8 -9 17 2 9 11 13 12 17 3 2
-7 14 -13 24 -13 13 0 18 4 13 12 -4 6 3 4 17 -5 32 -23 55 -22 31 1 -26 24
-59 42 -79 42 -15 0 -14 -2 3 -15 18 -13 18 -14 -6 -8 -33 8 -50 22 -50 41 0
12 3 13 12 4 14 -14 78 -16 78 -3 0 5 11 11 26 14 l25 4 -22 -23 c-19 -20 -20
-24 -6 -24 9 0 17 -7 17 -15 0 -8 5 -15 10 -15 6 0 10 7 10 15 0 15 11 19 39
15 13 -1 13 1 2 14 -8 9 -20 16 -27 16 -8 0 -11 6 -8 15 4 8 13 15 21 15 8 0
12 -3 10 -7 -3 -5 2 -15 11 -22 14 -13 15 -12 10 7 -5 19 -2 22 20 22 22 0 24
2 12 11 -12 9 -12 10 -1 7 21 -6 26 -28 7 -28 -20 0 -20 -4 0 -42 13 -25 14
-36 5 -50 -18 -29 -13 -33 8 -6 13 17 18 33 14 49 -6 23 -6 23 20 6 33 -21 43
-22 26 -1 -20 25 -19 44 2 44 10 0 19 5 19 11 0 5 -4 7 -10 4 -5 -3 -10 -1
-10 4 0 16 17 13 40 -6 11 -10 30 -27 42 -37 21 -19 21 -19 16 2 -6 20 -5 20
18 5 27 -17 29 -24 12 -41 -9 -9 -7 -12 11 -12 16 0 21 -4 17 -15 -3 -8 -1
-15 4 -15 6 0 10 4 10 9 0 5 11 12 25 15 22 6 24 9 13 26 -7 11 -14 16 -16 10
-5 -15 -22 -12 -22 4 0 23 26 26 49 5 25 -23 28 -13 5 19 -14 20 -14 22 1 22
9 0 14 4 10 10 -3 5 -12 7 -20 3 -9 -3 -15 1 -15 10 0 8 12 17 26 20 18 3 24
1 20 -9 -4 -9 1 -11 15 -5 11 4 20 10 20 14 -1 4 -1 12 -1 17 0 6 -7 10 -15
10 -9 0 -18 7 -21 15 -4 8 -10 12 -15 9 -5 -3 -7 -9 -5 -13 3 -4 0 -13 -6 -21
-8 -13 -9 -12 -5 1 4 11 -3 21 -20 28 -25 11 -25 12 -7 26 11 8 15 15 11 15
-4 0 -3 10 4 22 10 19 12 19 21 5 11 -21 32 -22 24 -2 -4 10 1 15 16 15 l21 0
-21 -23 c-23 -24 -30 -43 -12 -32 6 4 7 -1 3 -11 -4 -11 -3 -15 4 -11 6 4 13
2 15 -3 2 -7 15 -5 36 6 18 9 48 16 67 17 28 1 34 5 39 28 5 29 35 43 57 27
11 -8 10 -9 -3 -4 -10 3 -18 1 -18 -4 0 -6 9 -10 21 -10 16 0 20 -4 15 -17 -5
-15 -3 -14 9 2 9 11 14 28 11 38 -2 10 2 21 11 24 12 5 12 7 2 14 -18 11 -5
22 26 22 14 0 30 7 35 16 8 15 3 17 -33 15 -23 -2 -37 0 -31 2 7 3 10 13 7 23
-3 11 2 21 12 25 21 8 35 0 35 -20 0 -11 6 -13 23 -8 12 4 32 7 45 6 13 -1 20
2 17 8 -3 6 -2 10 3 10 5 0 12 9 15 20 3 11 1 17 -4 14 -10 -6 -29 37 -22 49
3 5 10 6 17 4 6 -3 12 4 12 14 0 13 -7 19 -23 19 -16 0 -21 -4 -17 -15 5 -11
-1 -15 -26 -15 -18 0 -29 4 -25 10 8 12 -5 13 -23 1 -12 -7 -11 -14 2 -38 17
-35 46 -50 57 -31 4 7 10 10 13 7 3 -3 -7 -18 -21 -34 -27 -28 -27 -28 -36 -7
-9 19 -25 27 -49 23 -5 0 -8 8 -8 19 0 13 -7 20 -20 20 -11 0 -20 5 -20 10 0
6 7 10 15 10 22 0 18 18 -5 25 -11 3 -20 13 -20 21 0 8 -4 14 -10 14 -13 0 -1
31 23 57 18 20 44 23 33 4 -3 -4 8 -5 25 -3 23 3 29 1 29 -14 1 -18 1 -18 15
0 19 25 10 38 -21 30 -25 -6 -58 12 -49 26 8 14 -6 40 -22 40 -8 0 -11 -4 -8
-10 3 -5 -3 -15 -15 -22 -13 -9 -20 -24 -21 -48 l-1 -35 -12 28 c-7 15 -15 25
-19 21 -3 -4 -5 5 -4 19 1 15 -2 25 -8 24 -5 -1 -9 -5 -8 -9 2 -5 -3 -8 -11
-8 -9 0 -12 8 -8 25 3 20 0 25 -17 25 -15 0 -19 -4 -14 -16 4 -11 2 -15 -7
-12 -19 6 -21 38 -3 38 13 0 13 3 2 16 -12 14 -14 14 -24 1 -6 -9 -23 -19 -38
-22 -22 -6 -26 -4 -21 9 3 9 1 16 -5 16 -6 0 -11 5 -11 11 0 6 9 8 20 4 16 -5
20 -2 20 14 0 11 9 25 20 31 14 8 20 8 20 0 0 -7 5 -6 13 2 13 11 12 48 0 48
-3 0 -14 -9 -23 -20 -15 -17 -19 -18 -24 -5 -6 17 -48 12 -75 -9 -12 -9 -13
-8 -7 2 5 8 22 23 40 34 17 11 23 18 14 14 -14 -4 -18 0 -19 17 0 22 0 22 -9
1 -4 -12 -15 -24 -24 -27 -9 -4 -16 -16 -16 -27 0 -11 -5 -20 -12 -20 -6 0 -8
3 -5 7 4 3 2 12 -4 20 -9 10 -8 13 0 13 8 0 7 5 -3 15 -19 20 -27 19 -20 -2 5
-15 4 -15 -4 -3 -7 9 -7 19 -2 25 10 12 -6 35 -24 35 -6 0 -2 -7 8 -15 18 -13
18 -15 3 -15 -10 0 -20 -7 -23 -15 -4 -10 -18 -15 -38 -14 -17 1 -39 -2 -48
-6 -12 -4 -18 -3 -18 5 0 7 -7 10 -15 6 -16 -6 -50 46 -38 58 4 3 0 6 -7 6
-13 0 -39 28 -40 44 0 4 6 6 14 3 8 -3 22 3 32 14 10 11 12 19 6 19 -7 0 -12
7 -12 15 0 9 -6 12 -16 8 -10 -4 -17 1 -21 16 -3 11 -9 18 -14 15 -5 -3 -9 -1
-9 5 0 6 -11 13 -25 17 -24 6 -24 7 -8 19 17 13 17 15 -5 38 -19 20 -20 25 -8
30 10 4 13 1 10 -7 -7 -19 57 -28 75 -11 11 11 10 14 -7 19 -26 9 -46 96 -21
96 5 0 7 -4 4 -10 -11 -17 19 -50 35 -39 13 7 12 9 -2 9 -9 0 -20 4 -23 10 -3
6 1 7 9 4 11 -4 16 0 16 15 0 12 -3 20 -7 20 -26 -4 -33 2 -23 20 11 21 4 51
-12 51 -5 0 -6 5 -3 10 3 6 -2 10 -11 10 -14 0 -15 -3 -6 -12 17 -17 15 -58
-3 -58 -9 0 -18 7 -21 15 -4 8 -11 12 -18 8 -8 -4 -8 -2 1 7 8 8 9 20 3 36 -8
20 -6 24 8 24 10 0 23 5 30 12 9 9 12 8 12 -5 0 -9 5 -17 11 -17 13 0 2 53
-12 58 -5 2 -7 7 -4 12 3 5 -2 16 -11 24 -14 15 -14 16 0 16 9 0 16 5 16 11 0
6 -8 9 -19 6 -11 -2 -24 3 -32 14 -15 22 -35 25 -42 7 -3 -10 -7 -10 -17 -1
-7 6 -18 9 -25 7 -7 -3 -14 5 -17 20 -4 18 -1 26 8 26 8 0 14 -4 14 -10 0 -5
6 -10 14 -10 16 0 9 50 -8 51 -6 0 -2 4 9 9 19 8 19 9 -2 9 -13 1 -23 5 -23
11 0 13 45 -4 46 -19 1 -6 2 -12 3 -13 2 -2 5 -14 7 -27 6 -35 9 -35 37 -10
23 19 24 23 11 36 -8 9 -17 13 -20 10 -3 -3 -15 5 -28 17 -22 21 -24 55 -2 57
6 0 0 5 -14 11 -24 10 -24 10 -5 18 l20 9 -20 1 c-19 1 -19 1 -2 11 13 7 21 6
32 -4 8 -8 11 -17 8 -21 -4 -3 -1 -6 5 -6 17 0 15 15 -3 30 -8 7 -12 16 -9 21
3 5 1 9 -5 9 -5 0 -12 -4 -15 -9 -9 -14 -43 -19 -57 -9 -11 8 -10 9 4 4 9 -3
17 -1 17 4 0 6 -6 10 -14 10 -8 0 -17 4 -20 8 -2 4 14 7 37 6 36 -1 67 13 67
30 0 3 -16 6 -35 6 -19 0 -35 -4 -35 -10 0 -5 -7 -10 -15 -10 -8 0 -15 6 -15
14 0 8 -9 12 -22 11 -13 -1 -15 0 -5 2 9 2 17 13 17 24 0 11 7 19 16 19 8 0
13 4 10 8 -2 4 4 8 15 8 10 0 19 -6 19 -13 0 -13 48 -38 57 -30 2 2 -13 20
-34 40 -20 20 -33 40 -29 44 5 5 11 2 13 -4 8 -22 23 -14 23 11 0 19 4 23 28
20 15 -2 19 -1 10 2 -25 8 -22 27 3 21 13 -3 19 -1 16 6 -2 7 -17 11 -32 10
-25 -2 -26 -1 -10 11 18 13 18 14 1 23 -17 9 -17 11 -2 16 10 4 14 3 11 -2
-10 -17 15 -23 30 -8 12 13 12 17 -5 32 -11 10 -20 24 -20 32 0 23 -18 14 -25
-14z m-90 -113 c3 -6 -1 -7 -9 -4 -18 7 -21 14 -7 14 6 0 13 -4 16 -10z m65
-20 c0 -5 -2 -10 -4 -10 -3 0 -8 5 -11 10 -3 6 -1 10 4 10 6 0 11 -4 11 -10z
m-74 -29 c-4 -5 -1 -12 4 -14 6 -3 5 -4 -2 -3 -15 3 -23 26 -8 26 6 0 9 -4 6
-9z m-25 -142 c11 -11 17 -24 13 -27 -3 -4 -9 -1 -11 6 -3 6 -11 12 -20 12
-12 0 -12 -2 1 -16 9 -8 16 -22 16 -30 0 -12 -3 -12 -20 -2 -19 12 -28 57 -13
71 9 10 11 9 34 -14z m-16 -109 c3 -5 1 -10 -4 -10 -6 0 -11 5 -11 10 0 6 2
10 4 10 3 0 8 -4 11 -10z m-70 -60 c-3 -5 -11 -10 -16 -10 -6 0 -7 5 -4 10 3
6 11 10 16 10 6 0 7 -4 4 -10z m92 -16 c-3 -3 -12 -4 -19 -1 -8 3 -5 6 6 6 11
1 17 -2 13 -5z m153 -4 c0 -5 -4 -10 -10 -10 -5 0 -10 5 -10 10 0 6 5 10 10
10 6 0 10 -4 10 -10z m-173 -66 c-3 -3 -12 -4 -19 -1 -8 3 -5 6 6 6 11 1 17
-2 13 -5z m126 -21 c-7 -2 -19 -2 -25 0 -7 3 -2 5 12 5 14 0 19 -2 13 -5z
m-38 -32 c-3 -6 -11 -8 -17 -5 -6 4 -5 9 3 15 16 10 23 4 14 -10z m92 -53 c-3
-8 -6 -5 -6 6 -1 11 2 17 5 13 3 -3 4 -12 1 -19z m-40 6 c-3 -3 -12 -4 -19 -1
-8 3 -5 6 6 6 11 1 17 -2 13 -5z m47 -143 c-2 -3 -12 3 -22 13 -16 17 -16 18
5 5 12 -7 20 -15 17 -18z m16 -61 c0 -4 -10 -6 -22 -2 -16 4 -19 2 -13 -8 6
-9 4 -11 -5 -5 -10 6 -9 11 5 21 18 13 35 10 35 -6z m-80 -140 c0 -5 -2 -10
-4 -10 -3 0 -8 5 -11 10 -3 6 -1 10 4 10 6 0 11 -4 11 -10z m-33 -22 c-3 -8
-6 -5 -6 6 -1 11 2 17 5 13 3 -3 4 -12 1 -19z m170 -154 c-3 -3 -12 -4 -19 -1
-8 3 -5 6 6 6 11 1 17 -2 13 -5z m-77 -14 c0 -5 -8 -10 -17 -10 -15 0 -16 2
-3 10 19 12 20 12 20 0z m-367 -57 c-7 -2 -21 -2 -30 0 -10 3 -4 5 12 5 17 0
24 -2 18 -5z m757 -33 c0 -5 -2 -10 -4 -10 -3 0 -8 5 -11 10 -3 6 -1 10 4 10
6 0 11 -4 11 -10z m-810 -20 c0 -5 -2 -10 -4 -10 -3 0 -8 5 -11 10 -3 6 -1 10
4 10 6 0 11 -4 11 -10z m-20 -64 c0 -3 -4 -8 -10 -11 -5 -3 -10 -1 -10 4 0 6
5 11 10 11 6 0 10 -2 10 -4z m30 -6 c0 -5 -2 -10 -4 -10 -3 0 -8 5 -11 10 -3
6 -1 10 4 10 6 0 11 -4 11 -10z m1060 -55 c0 -8 -4 -15 -10 -15 -5 0 -10 7
-10 15 0 8 5 15 10 15 6 0 10 -7 10 -15z m-120 -85 c0 -5 -5 -10 -11 -10 -5 0
-7 5 -4 10 3 6 8 10 11 10 2 0 4 -4 4 -10z m63 -23 c4 3 7 1 7 -5 0 -18 -27
-14 -34 4 -5 13 -4 14 7 6 8 -7 17 -9 20 -5z m-38 -17 c3 -5 1 -10 -4 -10 -6
0 -11 5 -11 10 0 6 2 10 4 10 3 0 8 -4 11 -10z m30 -41 c4 -6 5 -12 2 -15 -7
-7 -37 7 -37 17 0 13 27 11 35 -2z m195 1 c0 -5 -2 -10 -4 -10 -3 0 -8 5 -11
10 -3 6 -1 10 4 10 6 0 11 -4 11 -10z m-143 -92 c-3 -8 -6 -5 -6 6 -1 11 2 17
5 13 3 -3 4 -12 1 -19z m3 -28 c0 -5 -7 -7 -15 -4 -8 4 -15 8 -15 10 0 2 7 4
15 4 8 0 15 -4 15 -10z m-27 -31 c-6 -6 -10 -17 -9 -23 2 -6 1 -8 -1 -3 -3 4
-10 4 -16 0 -7 -3 -3 3 7 15 11 12 22 22 25 22 3 0 0 -5 -6 -11z m-85 -75 c18
-19 15 -24 -14 -24 -22 0 -25 2 -14 15 10 12 10 15 -3 15 -9 0 -18 4 -21 9 -8
13 36 0 52 -15z m-404 -10 c5 -14 4 -15 -9 -4 -17 14 -19 20 -6 20 5 0 12 -7
15 -16z m126 0 c0 -2 -7 -4 -15 -4 -8 0 -15 4 -15 10 0 5 7 7 15 4 8 -4 15 -8
15 -10z m0 -44 c-21 -13 -63 -13 -55 1 4 6 13 8 19 6 7 -3 19 -1 27 3 7 5 16
7 18 4 3 -3 -1 -9 -9 -14z m-726 2 c2 -4 -5 -9 -17 -9 -17 -2 -19 0 -7 7 18
12 18 12 24 2z m601 -2 c3 -6 -1 -7 -9 -4 -18 7 -21 14 -7 14 6 0 13 -4 16
-10z m48 -25 c-5 -13 -23 -22 -23 -11 0 15 14 35 21 31 4 -3 6 -12 2 -20z
m-513 11 c0 -2 -7 -6 -15 -10 -8 -3 -15 -1 -15 4 0 6 7 10 15 10 8 0 15 -2 15
-4z m97 -12 c-3 -3 -12 -4 -19 -1 -8 3 -5 6 6 6 11 1 17 -2 13 -5z m-27 -38
c-6 -6 -18 -5 -32 1 -21 10 -21 10 9 9 19 -1 28 -5 23 -10z m510 -1 c9 5 11 4
6 -3 -4 -7 -17 -13 -29 -13 -17 -1 -18 -2 -4 -6 9 -2 17 -9 17 -14 0 -6 -8 -5
-20 1 -17 9 -18 14 -9 32 8 15 13 17 19 8 4 -7 13 -9 20 -5z m-573 -9 c5 -5 1
-7 -9 -3 -10 3 -20 2 -23 -3 -9 -14 -32 -12 -38 3 -5 14 56 17 70 3z m360 0
c0 -8 -6 -12 -15 -9 -11 5 -11 7 0 14 7 5 13 9 14 9 0 0 1 -6 1 -14z m273 -17
c0 -8 5 -8 15 1 12 10 15 10 15 -3 0 -12 -8 -16 -30 -14 -30 2 -36 8 -23 20
10 11 23 8 23 -4z m-480 -20 c0 -5 -4 -9 -8 -9 -5 0 -9 7 -9 15 0 8 4 12 9 9
4 -3 8 -9 8 -15z m-373 4 c-4 -3 -2 -12 5 -20 8 -10 8 -17 -1 -26 -10 -9 -15
-8 -26 6 -16 22 -9 47 13 47 8 0 12 -3 9 -7z m303 -519 c0 -2 -7 -4 -15 -4 -8
0 -15 4 -15 10 0 5 7 7 15 4 8 -4 15 -8 15 -10z m-93 -40 c-3 -3 -12 -4 -19
-1 -8 3 -5 6 6 6 11 1 17 -2 13 -5z m88 -114 c-3 -5 -10 -10 -16 -10 -5 0 -9
5 -9 10 0 6 7 10 16 10 8 0 12 -4 9 -10z m-5 -51 c0 -5 -10 -9 -21 -9 -18 0
-19 2 -9 15 12 15 30 12 30 -6z m15 -29 c3 -6 -1 -7 -9 -4 -18 7 -21 14 -7 14
6 0 13 -4 16 -10z m85 -42 c0 -4 -5 -10 -10 -13 -6 -4 -8 -11 -5 -16 4 -5 1
-9 -4 -9 -6 0 -11 5 -11 11 0 12 -43 1 -48 -12 -5 -13 -52 -11 -52 2 0 5 -4 8
-9 5 -5 -4 -12 0 -15 6 -4 10 -8 10 -11 2 -3 -7 -15 -10 -25 -7 -22 6 -22 6
-14 27 8 20 23 20 45 0 31 -28 106 -26 95 2 -6 16 10 19 19 4 12 -20 26 -10
15 10 -10 19 -10 20 9 8 12 -7 21 -16 21 -20z m-100 2 c0 -5 -7 -10 -16 -10
-8 0 -12 5 -9 10 3 6 10 10 16 10 5 0 9 -4 9 -10z m79 -59 c12 -8 10 -12 -12
-22 -22 -10 -30 -10 -40 1 -9 10 -9 11 1 6 7 -4 20 -5 30 -1 14 5 14 7 2 15
-8 6 -10 10 -5 10 6 0 17 -4 24 -9z m1366 -51 c-3 -5 -12 -10 -18 -10 -7 0 -6
4 3 10 19 12 23 12 15 0z m105 -21 c0 -5 -4 -9 -8 -9 -5 0 -9 7 -9 15 0 8 4
12 9 9 4 -3 8 -9 8 -15z m-1550 -119 c0 -5 -5 -10 -11 -10 -5 0 -7 5 -4 10 3
6 8 10 11 10 2 0 4 -4 4 -10z m1463 -53 c4 3 7 -2 7 -11 0 -12 -5 -16 -16 -12
-9 3 -18 6 -20 6 -2 0 -4 7 -4 16 0 13 3 14 13 5 8 -6 17 -8 20 -4z m-336 -3
c-3 -3 -12 -4 -19 -1 -8 3 -5 6 6 6 11 1 17 -2 13 -5z m473 -26 c0 -4 -4 -8
-9 -8 -6 0 -12 4 -15 8 -3 5 1 9 9 9 8 0 15 -4 15 -9z m-446 -4 c16 -6 23 -26
9 -22 -5 1 -17 -3 -29 -9 -19 -11 -21 -10 -16 12 5 26 10 29 36 19z m495 -25
c-19 -12 -24 -2 -8 17 9 11 14 13 17 4 3 -7 -2 -16 -9 -21z m157 -4 c-3 -9 0
-15 9 -15 8 0 15 -5 15 -12 0 -6 -3 -8 -6 -5 -11 10 -45 -13 -38 -25 5 -7 2
-8 -5 -4 -7 5 -10 14 -7 22 3 8 -1 14 -9 14 -23 0 -18 20 8 30 32 13 40 12 33
-5z m-649 -23 c-10 -10 -14 -22 -10 -25 3 -4 -1 -7 -9 -7 -9 0 -18 -3 -21 -7
-2 -5 -2 -2 -1 5 2 6 -2 12 -9 12 -7 1 4 9 23 19 45 24 46 24 27 3z m503 2 c0
-8 -5 -12 -10 -9 -6 4 -8 11 -5 16 9 14 15 11 15 -7z m65 -14 c-3 -5 -11 -10
-16 -10 -6 0 -7 5 -4 10 3 6 11 10 16 10 6 0 7 -4 4 -10z m-410 -40 c3 -5 1
-10 -4 -10 -6 0 -11 5 -11 10 0 6 2 10 4 10 3 0 8 -4 11 -10z m491 -15 c-11
-8 -27 -15 -35 -15 -9 1 -2 7 14 15 39 18 44 18 21 0z m-215 -22 c-12 -20 -14
-14 -5 12 4 9 9 14 11 11 3 -2 0 -13 -6 -23z m-245 -2 c0 -15 -3 -17 -18 -8
-13 8 -14 13 -5 19 18 12 23 10 23 -11z m39 9 c3 -5 1 -10 -4 -10 -6 0 -11 5
-11 10 0 6 2 10 4 10 3 0 8 -4 11 -10z m-75 -30 c0 -5 -5 -10 -11 -10 -5 0 -7
5 -4 10 3 6 8 10 11 10 2 0 4 -4 4 -10z m130 -5 c0 -1 -8 -10 -19 -19 -17 -16
-18 -16 -14 8 3 16 10 23 19 19 8 -3 14 -6 14 -8z m-93 -27 c-3 -8 -6 -5 -6 6
-1 11 2 17 5 13 3 -3 4 -12 1 -19z m33 2 c0 -11 -4 -20 -9 -20 -5 0 -7 9 -4
20 3 11 7 20 9 20 2 0 4 -9 4 -20z m924 -11 c-3 -5 -10 -7 -15 -3 -5 3 -7 10
-3 15 3 5 10 7 15 3 5 -3 7 -10 3 -15z m-84 7 c0 -3 -4 -8 -10 -11 -5 -3 -10
-1 -10 4 0 6 5 11 10 11 6 0 10 -2 10 -4z m-772 -24 c2 -7 -2 -10 -12 -6 -9 3
-16 11 -16 16 0 13 23 5 28 -10z m57 0 c-3 -3 -11 0 -18 7 -9 10 -8 11 6 5 10
-3 15 -9 12 -12z m649 -24 c-3 -4 2 -8 10 -8 21 0 21 -16 0 -24 -8 -3 -12 -2
-9 4 3 6 0 10 -9 10 -19 0 -26 21 -12 36 12 13 29 -3 20 -18z m-1334 -28 c0
-11 -2 -20 -4 -20 -2 0 -6 9 -9 20 -3 11 -1 20 4 20 5 0 9 -9 9 -20z m1050
-11 c0 -6 -4 -7 -10 -4 -5 3 -10 11 -10 16 0 6 5 7 10 4 6 -3 10 -11 10 -16z
m-1215 -9 c16 -18 16 -20 2 -20 -10 0 -17 7 -17 16 0 10 -6 14 -15 10 -8 -3
-15 -1 -15 4 0 17 26 11 45 -10z m832 -38 c-5 -7 -12 -10 -15 -8 -9 9 -42 -14
-42 -29 0 -8 -4 -15 -10 -15 -5 0 -7 6 -4 14 3 8 1 23 -5 34 -9 17 -7 20 14
24 14 3 30 -2 39 -11 10 -9 16 -11 16 -4 0 7 -4 15 -10 18 -5 3 -10 10 -10 16
0 5 8 1 18 -8 13 -13 16 -22 9 -31z m-642 28 c3 -5 1 -10 -4 -10 -6 0 -11 5
-11 10 0 6 2 10 4 10 3 0 8 -4 11 -10z m1010 -8 c-3 -3 -11 0 -18 7 -9 10 -8
11 6 5 10 -3 15 -9 12 -12z m29 -43 c3 1 6 -2 6 -6 0 -5 -7 -8 -15 -8 -8 0
-15 3 -15 8 0 31 0 32 9 19 4 -8 11 -13 15 -13z m-384 -9 c0 -5 -4 -10 -10
-10 -5 0 -10 5 -10 10 0 6 5 10 10 10 6 0 10 -4 10 -10z m285 0 c-3 -5 -12
-10 -18 -10 -7 0 -6 4 3 10 19 12 23 12 15 0z m-408 -15 c0 -8 -4 -15 -9 -15
-4 0 -8 7 -8 15 0 8 4 15 8 15 5 0 9 -7 9 -15z m-477 -15 c0 -5 -4 -10 -10
-10 -5 0 -10 5 -10 10 0 6 5 10 10 10 6 0 10 -4 10 -10z m97 4 c-3 -3 -12 -4
-19 -1 -8 3 -5 6 6 6 11 1 17 -2 13 -5z m33 -14 c0 -5 -7 -10 -16 -10 -8 0
-12 5 -9 10 3 6 10 10 16 10 5 0 9 -4 9 -10z m100 -10 c0 -5 -5 -10 -11 -10
-5 0 -7 5 -4 10 3 6 8 10 11 10 2 0 4 -4 4 -10z m187 -22 c-3 -7 -5 -2 -5 12
0 14 2 19 5 13 2 -7 2 -19 0 -25z m-222 3 c3 -5 1 -12 -4 -15 -5 -3 -11 1 -15
9 -6 16 9 21 19 6z"/>
<path d="M2540 3906 c0 -2 7 -7 16 -10 8 -3 12 -2 9 4 -6 10 -25 14 -25 6z"/>
<path d="M2646 3875 c4 -8 11 -15 16 -15 6 0 5 6 -2 15 -7 8 -14 15 -16 15 -2
0 -1 -7 2 -15z"/>
<path d="M2541 3871 c-9 -6 -10 -11 -2 -15 6 -4 11 -2 11 4 0 6 5 8 12 4 7 -4
8 -3 4 4 -8 14 -7 14 -25 3z"/>
<path d="M2520 3825 c-7 -9 -11 -18 -8 -20 9 -10 38 7 38 21 0 18 -14 18 -30
-1z"/>
<path d="M3034 3763 c11 -34 -42 -81 -59 -53 -3 6 -11 10 -17 10 -6 0 -3 -9 7
-20 16 -18 16 -20 2 -20 -9 0 -21 -8 -26 -17 -14 -24 -14 -7 -1 18 6 11 7 19
1 19 -5 0 -11 -7 -15 -15 -3 -8 -14 -15 -25 -15 -16 0 -35 -30 -32 -52 1 -5
-6 -8 -15 -8 -8 0 -12 -4 -9 -10 3 -5 1 -10 -6 -10 -7 0 -9 10 -7 25 3 14 1
25 -3 25 -5 0 -9 -10 -9 -22 0 -19 -2 -20 -10 -8 -8 13 -10 12 -10 -2 0 -10 6
-18 13 -18 6 0 4 -5 -6 -11 -14 -8 -22 -8 -30 0 -17 17 -31 13 -17 -4 11 -13
10 -14 -3 -9 -11 4 -15 0 -13 -13 2 -10 1 -12 -1 -5 -3 6 -11 12 -18 12 -7 0
-16 -6 -18 -12 -4 -8 -8 -5 -12 9 -4 12 -12 20 -19 17 -7 -3 -12 4 -12 16 0
11 6 20 13 20 7 0 13 5 13 10 0 6 5 10 11 10 6 0 9 -7 5 -15 -6 -16 2 -45 13
-45 4 0 5 17 3 38 -3 33 -7 37 -33 38 -18 1 -29 -4 -29 -12 0 -8 -8 -14 -17
-14 -15 0 -16 2 -3 10 13 8 13 10 -1 10 -19 0 -33 -26 -23 -42 4 -6 0 -14 -7
-19 -11 -7 -9 -10 7 -15 12 -3 27 -18 34 -32 11 -22 14 -24 17 -9 6 25 20 21
27 -8 7 -29 -2 -75 -15 -75 -5 0 -9 -7 -9 -16 0 -9 -6 -14 -12 -11 -7 2 -12
11 -10 21 4 21 -4 20 -40 -6 l-30 -21 27 -11 c36 -15 43 -66 10 -74 -19 -6
-18 -6 4 -12 22 -5 23 -7 8 -21 -17 -17 -6 -39 20 -39 19 0 16 -13 -9 -35 -20
-17 -21 -20 -5 -23 18 -4 24 -22 7 -22 -5 0 -10 -7 -10 -15 0 -9 -6 -12 -15
-9 -10 4 -15 0 -15 -11 0 -11 -5 -15 -15 -11 -9 3 -15 0 -15 -9 0 -8 7 -15 15
-15 8 0 15 -4 15 -9 0 -11 -90 -5 -102 7 -10 10 -58 -7 -58 -21 0 -5 5 -5 12
-1 6 4 17 -1 24 -11 8 -10 20 -15 29 -11 11 4 14 2 9 -7 -5 -9 -4 -9 7 1 16
14 33 16 24 2 -6 -10 10 -15 30 -10 40 10 69 8 82 -5 10 -10 11 -15 2 -15 -8
0 -6 -7 6 -20 10 -11 22 -17 26 -14 5 3 9 0 9 -5 0 -6 5 -11 11 -11 5 0 8 4 4
9 -3 5 -1 12 5 16 6 4 8 10 5 15 -3 5 7 13 22 16 17 5 28 3 31 -4 2 -7 8 -12
14 -12 6 0 8 7 5 15 -4 8 -2 17 3 20 15 9 12 -21 -5 -62 -8 -20 -13 -38 -10
-41 3 -3 5 0 5 6 0 7 4 12 10 12 5 0 9 -3 9 -7 -3 -20 2 -23 17 -9 8 9 22 16
30 16 10 0 7 -8 -11 -26 -19 -19 -23 -29 -15 -34 9 -6 7 -11 -6 -19 -16 -9
-17 -12 -4 -21 8 -5 27 -10 42 -10 21 0 28 6 33 29 3 17 25 47 48 68 23 20 43
41 43 45 1 5 2 19 3 33 1 18 5 23 17 18 11 -4 15 -1 12 13 -2 11 -7 22 -11 25
-5 4 -9 23 -9 44 0 27 -3 34 -11 26 -6 -6 -14 -11 -18 -11 -9 0 -5 57 5 67 5
4 6 3 3 -3 -4 -7 0 -15 9 -18 12 -5 15 -2 10 10 -3 8 -6 18 -6 20 0 2 -7 4
-15 4 -21 0 -19 50 2 65 14 10 15 16 5 27 -6 8 -8 19 -4 23 4 5 1 5 -6 1 -7
-4 -10 -12 -7 -17 4 -5 1 -9 -4 -9 -6 0 -11 6 -11 13 0 20 -25 17 -38 -4 -10
-15 -8 -17 8 -14 27 5 34 -10 14 -30 -14 -13 -19 -14 -25 -3 -5 7 -9 9 -9 3 0
-5 -4 -3 -10 5 -6 9 -3 23 8 42 15 26 25 32 44 29 10 -1 20 37 13 49 -3 5 0
10 7 10 9 0 10 3 2 8 -6 4 -14 17 -18 30 -7 22 -26 31 -26 12 0 -5 4 -10 9
-10 5 0 7 -9 4 -20 -6 -21 -12 -24 -36 -14 -9 3 -13 13 -9 26 4 16 2 19 -8 13
-9 -5 -11 -4 -6 4 4 6 11 9 16 6 5 -3 12 7 16 22 3 15 7 33 9 40 2 6 -1 14 -8
17 -9 3 -9 5 0 5 7 1 10 11 7 26 -3 19 -1 23 11 19 8 -4 15 -13 15 -21 0 -7
14 -20 31 -27 17 -7 30 -17 29 -22 -1 -5 3 -10 9 -12 19 -6 -1 29 -21 37 -18
6 -18 7 1 28 20 21 20 21 -2 27 -17 5 -19 8 -8 15 7 5 11 14 7 20 -8 12 10 51
24 51 6 0 10 -8 10 -17 0 -15 -2 -16 -10 -3 -8 13 -10 13 -10 -1 0 -14 19 -29
36 -29 3 0 3 16 0 36 -4 21 -2 33 3 29 5 -3 12 -1 16 5 3 5 0 10 -7 11 -7 0
-4 4 7 9 11 5 14 9 7 9 -7 1 -11 5 -8 10 3 5 -2 15 -11 22 -14 12 -15 11 -9
-8z m-139 -163 c3 -5 1 -10 -4 -10 -6 0 -11 5 -11 10 0 6 2 10 4 10 3 0 8 -4
11 -10z m-109 -93 c4 -4 0 -7 -9 -7 -9 0 -18 4 -21 9 -7 10 20 9 30 -2z m-34
-29 c2 -13 9 -22 16 -20 13 2 16 -10 6 -21 -9 -8 -45 33 -39 43 3 5 -1 11 -7
13 -8 4 -7 6 4 6 10 1 18 -8 20 -21z m166 -103 c-3 -3 -9 2 -12 12 -6 14 -5
15 5 6 7 -7 10 -15 7 -18z m-120 -104 c3 -8 -1 -12 -9 -9 -7 2 -15 10 -17 17
-3 8 1 12 9 9 7 -2 15 -10 17 -17z m145 -74 c-3 -4 -6 -7 -7 -5 -1 2 -8 12
-16 22 -14 18 -14 18 7 6 12 -8 19 -18 16 -23z m-139 -26 c-2 -2 -10 2 -19 9
-12 10 -13 16 -3 28 11 13 13 11 19 -9 3 -13 4 -26 3 -28z m-49 21 c-3 -3 -11
0 -18 7 -9 10 -8 11 6 5 10 -3 15 -9 12 -12z m162 -9 c-4 -3 -2 -11 3 -18 7
-8 5 -12 -4 -12 -8 0 -12 7 -11 16 5 22 4 21 12 21 3 0 3 -3 0 -7z m-197 -15
c0 -7 -23 -12 -42 -9 -13 2 -9 -17 5 -22 8 -4 7 -6 -3 -6 -9 -1 -15 -11 -15
-26 0 -15 6 -25 15 -26 9 0 7 -4 -7 -11 -19 -9 -26 -7 -42 13 -26 31 -27 47
-1 24 18 -16 20 -16 20 -2 0 10 -4 17 -10 17 -13 0 0 32 19 47 17 13 61 14 61
1z m174 -67 c-5 -6 -34 20 -34 30 0 5 8 1 18 -8 10 -10 17 -20 16 -22z m-119
-11 c-3 -5 -14 -10 -23 -9 -14 0 -13 2 3 9 27 11 27 11 20 0z m-165 -26 c0 -2
-7 -4 -15 -4 -8 0 -15 4 -15 10 0 5 7 7 15 4 8 -4 15 -8 15 -10z m240 -24 c0
-5 -2 -10 -4 -10 -3 0 -8 5 -11 10 -3 6 -1 10 4 10 6 0 11 -4 11 -10z"/>
<path d="M2750 3761 c0 -17 18 -21 24 -6 3 9 0 15 -9 15 -8 0 -15 -4 -15 -9z"/>
<path d="M2831 3734 c0 -11 3 -14 6 -6 3 7 2 16 -1 19 -3 4 -6 -2 -5 -13z"/>
<path d="M3007 3743 c-4 -3 -7 -11 -7 -17 0 -6 5 -5 12 2 6 6 9 14 7 17 -3 3
-9 2 -12 -2z"/>
<path d="M2605 3720 c-3 -5 -1 -10 4 -10 6 0 11 5 11 10 0 6 -2 10 -4 10 -3 0
-8 -4 -11 -10z"/>
<path d="M2855 3720 c-2 -3 4 -13 14 -22 17 -14 19 -14 19 7 0 20 -23 31 -33
15z"/>
<path d="M2696 3705 c-3 -9 -6 -24 -5 -33 0 -9 5 -4 10 12 9 32 6 48 -5 21z"/>
<path d="M2613 3693 c9 -2 25 -2 35 0 9 3 1 5 -18 5 -19 0 -27 -2 -17 -5z"/>
<path d="M2830 3676 c0 -9 5 -16 10 -16 6 0 10 4 10 9 0 6 -4 13 -10 16 -5 3
-10 -1 -10 -9z"/>
<path d="M3948 3673 c7 -3 16 -2 19 1 4 3 -2 6 -13 5 -11 0 -14 -3 -6 -6z"/>
<path d="M3015 3610 c3 -5 11 -10 16 -10 6 0 7 5 4 10 -3 6 -11 10 -16 10 -6
0 -7 -4 -4 -10z"/>
<path d="M2760 3606 c0 -2 7 -6 15 -10 8 -3 15 -1 15 4 0 6 -7 10 -15 10 -8 0
-15 -2 -15 -4z"/>
<path d="M1431 3581 c14 -11 26 -15 28 -9 4 12 -17 28 -38 28 -8 0 -3 -8 10
-19z"/>
<path d="M1480 3566 c0 -9 5 -16 10 -16 6 0 10 4 10 9 0 6 -4 13 -10 16 -5 3
-10 -1 -10 -9z"/>
<path d="M3015 3560 c-3 -5 -1 -10 4 -10 6 0 11 5 11 10 0 6 -2 10 -4 10 -3 0
-8 -4 -11 -10z"/>
<path d="M2952 3504 c-2 -20 2 -34 9 -34 6 0 9 -7 6 -15 -4 -8 -2 -17 3 -20 6
-4 10 1 10 9 0 9 5 16 10 16 6 0 10 -4 10 -10 0 -5 5 -10 12 -10 6 0 3 9 -7
20 -10 11 -24 20 -31 20 -10 0 -11 6 -4 24 6 17 5 26 -4 29 -8 3 -13 -7 -14
-29z"/>
<path d="M4191 3504 c0 -11 3 -14 6 -6 3 7 2 16 -1 19 -3 4 -6 -2 -5 -13z"/>
<path d="M2360 3500 c8 -5 22 -10 30 -10 13 0 13 1 0 10 -8 5 -22 10 -30 10
-13 0 -13 -1 0 -10z"/>
<path d="M2342 3473 c-9 -3 -4 -10 13 -19 33 -17 65 -18 65 -3 0 6 -7 8 -15 5
-9 -3 -18 1 -21 9 -6 15 -19 18 -42 8z"/>
<path d="M2568 3463 c7 -3 16 -2 19 1 4 3 -2 6 -13 5 -11 0 -14 -3 -6 -6z"/>
<path d="M2455 3445 c-27 -13 -28 -14 -7 -15 13 0 30 7 38 15 19 18 9 18 -31
0z"/>
<path d="M4178 3448 c5 -5 16 -8 23 -6 8 3 3 7 -10 11 -17 4 -21 3 -13 -5z"/>
<path d="M2558 3443 c7 -3 16 -2 19 1 4 3 -2 6 -13 5 -11 0 -14 -3 -6 -6z"/>
<path d="M2515 3421 c4 -15 0 -21 -17 -24 -13 -2 -7 -4 13 -3 35 1 36 2 21 24
-18 27 -25 29 -17 3z"/>
<path d="M4217 3419 c7 -7 15 -10 18 -7 3 3 -2 9 -12 12 -14 6 -15 5 -6 -5z"/>
<path d="M1695 3400 c-3 -5 1 -10 9 -10 9 0 16 5 16 10 0 6 -4 10 -9 10 -6 0
-13 -4 -16 -10z"/>
<path d="M4241 3387 c8 -7 21 -21 28 -32 11 -17 12 -17 7 -2 -3 10 -6 25 -6
33 0 8 -10 14 -22 14 -20 -1 -21 -2 -7 -13z"/>
<path d="M3060 3361 c0 -5 7 -12 16 -15 14 -5 15 -4 4 9 -14 17 -20 19 -20 6z"/>
<path d="M1455 3320 c-3 -5 4 -10 15 -10 15 0 20 -5 17 -15 -7 -17 9 -30 18
-15 8 14 -13 50 -30 50 -7 0 -17 -4 -20 -10z"/>
<path d="M4280 3322 c0 -7 8 -29 19 -50 10 -20 16 -43 14 -49 -3 -7 2 -13 11
-13 9 0 17 -4 17 -10 1 -5 3 -14 4 -20 1 -5 3 -14 4 -20 0 -5 9 -10 19 -9 10
0 12 3 5 6 -7 2 -13 11 -13 19 0 8 -9 31 -20 51 -11 21 -20 42 -20 48 -1 15
-40 62 -40 47z"/>
<path d="M2568 3313 c7 -3 16 -2 19 1 4 3 -2 6 -13 5 -11 0 -14 -3 -6 -6z"/>
<path d="M2310 3256 c0 -2 9 -6 20 -9 11 -3 18 -1 14 4 -5 9 -34 13 -34 5z"/>
<path d="M2598 3253 c6 -2 10 -9 6 -14 -3 -5 -1 -9 5 -9 17 0 21 18 5 24 -9 3
-19 6 -22 5 -4 0 -1 -3 6 -6z"/>
<path d="M2546 3235 c24 -18 31 -19 31 0 0 9 -10 15 -26 15 -24 0 -24 -1 -5
-15z"/>
<path d="M2554 3195 c4 -24 16 -30 16 -7 0 12 -4 22 -9 22 -5 0 -8 -7 -7 -15z"/>
<path d="M2325 3180 c3 -5 11 -10 16 -10 6 0 7 5 4 10 -3 6 -11 10 -16 10 -6
0 -7 -4 -4 -10z"/>
<path d="M2218 3152 c9 -10 19 -17 21 -16 6 5 -20 34 -30 34 -5 0 -1 -8 9 -18z"/>
<path d="M2540 3140 c0 -11 4 -20 10 -20 5 0 7 6 4 14 -4 9 3 16 18 19 21 4
20 4 -4 6 -22 1 -28 -4 -28 -19z"/>
<path d="M2375 3130 c3 -5 10 -10 16 -10 5 0 9 5 9 10 0 6 -7 10 -16 10 -8 0
-12 -4 -9 -10z"/>
<path d="M4374 3128 c1 -7 8 -22 15 -33 11 -17 12 -17 7 -2 -3 10 -6 25 -6 33
0 8 -4 14 -9 14 -5 0 -8 -6 -7 -12z"/>
<path d="M2310 3120 c-9 -6 -10 -10 -3 -10 6 0 15 5 18 10 8 12 4 12 -15 0z"/>
<path d="M1590 3110 c0 -5 5 -10 11 -10 5 0 7 5 4 10 -3 6 -8 10 -11 10 -2 0
-4 -4 -4 -10z"/>
<path d="M2524 3106 c16 -9 31 -14 34 -11 8 8 0 13 -33 20 l-30 7 29 -16z"/>
<path d="M1690 3091 c0 -6 4 -13 10 -16 6 -3 7 1 4 9 -7 18 -14 21 -14 7z"/>
<path d="M4356 3077 c3 -10 9 -15 12 -12 3 3 0 11 -7 18 -10 9 -11 8 -5 -6z"/>
<path d="M1975 3060 c3 -5 8 -10 11 -10 2 0 4 5 4 10 0 6 -5 10 -11 10 -5 0
-7 -4 -4 -10z"/>
<path d="M2367 3063 c-3 -5 1 -14 9 -21 12 -10 14 -10 14 2 0 17 -16 30 -23
19z"/>
<path d="M2270 3050 c-9 -6 -10 -10 -3 -10 6 0 15 5 18 10 8 12 4 12 -15 0z"/>
<path d="M4400 3036 c0 -9 5 -16 10 -16 6 0 10 4 10 9 0 6 -4 13 -10 16 -5 3
-10 -1 -10 -9z"/>
<path d="M2318 3019 c-17 -17 -15 -23 5 -20 4 0 7 -3 7 -9 0 -5 7 -10 15 -10
12 0 13 5 7 18 -5 9 -7 23 -5 30 7 18 -9 13 -29 -9z"/>
<path d="M2463 3022 c-12 -8 -12 -66 0 -78 4 -4 7 0 7 9 0 8 5 17 10 19 6 2
12 13 14 25 5 22 -13 36 -31 25z"/>
<path d="M1854 3004 c-18 -14 -18 -14 6 -3 31 14 36 19 24 19 -6 0 -19 -7 -30
-16z"/>
<path d="M2031 3004 c6 -7 17 -10 25 -7 20 7 18 10 -11 15 -20 4 -23 2 -14 -8z"/>
<path d="M2389 3007 c-14 -10 -14 -14 -3 -25 19 -17 22 -15 20 13 0 14 -1 25
-1 25 0 0 -7 -6 -16 -13z"/>
<path d="M1528 3003 c7 -3 16 -2 19 1 4 3 -2 6 -13 5 -11 0 -14 -3 -6 -6z"/>
<path d="M1585 3000 c4 -6 11 -8 16 -5 14 9 11 15 -7 15 -8 0 -12 -5 -9 -10z"/>
<path d="M1608 2973 c7 -3 16 -2 19 1 4 3 -2 6 -13 5 -11 0 -14 -3 -6 -6z"/>
<path d="M1820 2970 c0 -6 -6 -10 -12 -9 -29 3 -49 -2 -43 -11 3 -6 17 -7 31
-4 14 4 24 2 24 -5 0 -23 15 -10 16 14 1 14 -2 25 -7 25 -5 0 -9 -5 -9 -10z"/>
<path d="M1885 2970 c3 -5 8 -10 11 -10 2 0 4 5 4 10 0 6 -5 10 -11 10 -5 0
-7 -4 -4 -10z"/>
<path d="M1510 2960 c-9 -6 -10 -10 -3 -10 6 0 10 -9 8 -20 -2 -11 0 -20 6
-20 5 0 9 5 9 11 0 6 7 9 15 5 18 -7 20 15 3 32 -14 14 -19 15 -38 2z"/>
<path d="M2282 2941 c1 -33 -20 -60 -41 -53 -10 3 -11 0 -2 -16 14 -26 14 -39
0 -25 -14 14 -49 5 -49 -13 0 -8 10 -19 23 -23 l22 -9 -25 -10 c-14 -5 -34
-12 -45 -14 -11 -2 -19 -10 -17 -17 2 -8 -4 -10 -19 -6 -18 6 -19 4 -10 -13 6
-11 7 -22 4 -26 -3 -3 1 -6 10 -6 9 0 19 5 23 11 5 8 9 7 14 -1 6 -10 20 -11
62 -2 38 8 42 10 13 7 -22 -2 -47 0 -55 5 -10 6 -11 10 -2 10 6 0 12 6 12 14
0 8 10 22 21 30 13 9 19 21 16 30 -4 10 2 16 21 18 18 2 27 9 26 20 -2 22 45
18 58 -5 4 -9 15 -14 23 -11 19 8 19 -3 0 -22 -13 -13 -15 -13 -15 -1 0 8 -7
18 -16 21 -13 5 -15 2 -11 -15 5 -18 2 -20 -19 -16 -20 3 -24 0 -24 -20 0 -13
4 -22 9 -19 12 8 34 -21 26 -34 -3 -5 -1 -10 4 -10 6 0 11 -7 11 -15 0 -8 -7
-15 -16 -15 -9 0 -12 -5 -8 -12 5 -8 1 -8 -12 2 -10 8 -16 10 -12 6 12 -14
-12 -36 -41 -37 -25 0 -25 0 -3 -9 12 -5 22 -14 22 -20 0 -15 17 -12 23 4 4
11 1 13 -11 9 -14 -5 -15 -3 -4 8 10 11 15 10 30 -5 15 -15 15 -18 1 -29 -8
-7 -18 -20 -22 -29 -4 -11 -14 -15 -29 -12 -13 2 -16 1 -8 -2 8 -4 18 -11 21
-16 8 -13 -1 -58 -12 -58 -5 0 -9 -4 -9 -9 0 -4 10 -7 23 -7 12 1 29 -1 37 -4
9 -4 22 1 33 12 9 10 14 18 11 18 -4 0 -1 6 5 13 6 8 7 18 3 22 -4 5 1 5 10 2
15 -5 16 -3 6 18 -6 14 -20 25 -30 25 -11 0 -17 4 -13 10 6 10 36 2 47 -14 5
-7 8 -5 8 5 0 8 -16 23 -36 32 -19 10 -32 22 -29 28 5 7 11 6 18 -4 15 -16 67
-40 67 -29 0 4 -7 17 -15 29 -14 20 -14 22 4 20 11 0 19 -5 18 -10 -1 -5 13
-11 31 -13 17 -2 32 1 32 6 0 6 8 10 18 10 13 0 14 -2 4 -9 -11 -7 -11 -9 2
-14 9 -4 23 -4 31 -1 8 4 15 1 15 -7 0 -7 -3 -9 -7 -6 -3 4 -12 2 -20 -4 -7
-6 -13 -8 -13 -5 0 4 -7 1 -15 -8 -8 -8 -15 -17 -15 -20 0 -12 19 -6 36 12 10
9 21 18 26 18 4 1 12 2 17 3 5 0 7 10 4 21 -5 19 -4 20 23 8 16 -7 32 -17 36
-23 4 -5 9 -4 12 5 7 23 4 50 -6 50 -5 0 -4 9 2 20 9 16 8 20 -6 20 -11 0 -14
5 -10 16 5 12 2 15 -10 10 -10 -4 -14 -1 -11 6 2 7 15 12 28 10 15 -2 19 0 12
5 -6 5 -14 20 -16 33 -9 43 -19 60 -35 60 -8 0 -12 -3 -9 -7 4 -3 -5 -17 -19
-30 -18 -17 -21 -23 -10 -23 9 0 16 -5 16 -11 0 -5 5 -7 12 -3 7 4 8 3 4 -4
-4 -7 -14 -12 -22 -12 -8 0 -14 -5 -14 -11 0 -5 -4 -7 -10 -4 -5 3 -10 1 -10
-5 0 -6 -4 -8 -10 -5 -5 3 -10 1 -10 -6 0 -7 -3 -9 -6 -6 -4 4 -1 14 7 24 12
15 12 16 -2 11 -12 -5 -15 1 -15 31 1 33 -1 37 -21 33 -16 -3 -23 0 -23 11 0
9 4 19 10 22 6 3 7 -1 4 -10 -6 -14 -3 -14 20 -4 22 10 24 14 12 21 -8 5 -13
17 -11 28 2 11 0 20 -6 20 -5 0 -9 -7 -9 -16 0 -13 -3 -14 -15 -4 -8 6 -19 9
-24 6 -5 -4 -13 -1 -17 5 -4 8 -3 9 4 5 18 -11 14 3 -7 30 -15 19 -20 21 -25
9 -3 -8 -16 -15 -30 -15 -13 0 -26 -6 -29 -12 -2 -7 -8 -9 -13 -5 -5 4 -4 11
1 15 6 4 16 15 24 25 12 15 11 17 -12 17 -22 0 -26 -4 -25 -29z m108 -71 c0
-11 -4 -20 -9 -20 -7 0 -8 17 -2 38 4 10 11 -2 11 -18z m60 -70 c0 -5 -2 -10
-4 -10 -3 0 -8 5 -11 10 -3 6 -1 10 4 10 6 0 11 -4 11 -10z m-10 -40 c-19 -13
-30 -13 -30 0 0 6 10 10 23 10 18 0 19 -2 7 -10z m102 -54 c5 -25 -26 -64 -37
-46 -3 5 4 12 16 15 12 4 18 10 13 14 -13 9 -17 41 -6 41 5 0 12 -11 14 -24z
m41 0 c3 -8 -1 -17 -9 -20 -9 -4 -14 1 -14 14 0 23 15 27 23 6z m-140 -9 c18
4 19 3 7 -6 -8 -6 -26 -11 -39 -11 -20 0 -22 2 -10 16 7 9 15 12 17 6 1 -5 13
-8 25 -5z m57 -7 c-8 -5 -19 -10 -25 -10 -5 0 -3 5 5 10 8 5 20 10 25 10 6 0
3 -5 -5 -10z m94 -25 c-4 -8 -8 -15 -10 -15 -2 0 -4 7 -4 15 0 8 4 15 10 15 5
0 7 -7 4 -15z m-284 -85 c0 -5 -2 -10 -4 -10 -3 0 -8 5 -11 10 -3 6 -1 10 4
10 6 0 11 -4 11 -10z m27 -36 c-3 -3 -12 -4 -19 -1 -8 3 -5 6 6 6 11 1 17 -2
13 -5z m-32 -34 c-3 -4 1 -10 7 -13 8 -2 9 -8 4 -13 -5 -5 -11 -4 -13 4 -3 6
-11 12 -19 12 -12 0 -12 3 -2 14 13 14 32 11 23 -4z"/>
<path d="M2560 2959 c0 -5 5 -7 10 -4 6 3 10 8 10 11 0 2 -4 4 -10 4 -5 0 -10
-5 -10 -11z"/>
<path d="M2410 2954 c1 -19 28 -45 35 -34 4 6 5 12 4 13 -2 2 -12 9 -21 16
-10 7 -18 10 -18 5z"/>
<path d="M2735 2930 c-3 -5 -2 -10 4 -10 6 0 13 -16 17 -35 3 -19 11 -32 16
-29 6 4 14 0 19 -7 13 -21 11 -35 -3 -21 -17 17 -25 15 -31 -7 -3 -15 0 -17
17 -13 11 3 18 2 14 -3 -4 -4 -2 -13 5 -20 9 -9 15 -7 30 11 17 23 17 24 -13
52 -16 16 -30 37 -30 46 0 16 -22 46 -34 46 -3 0 -8 -4 -11 -10z"/>
<path d="M1800 2918 c0 -10 38 -20 50 -13 19 12 10 20 -20 20 -16 0 -30 -3
-30 -7z"/>
<path d="M2485 2891 c-3 -5 -2 -12 3 -15 5 -3 9 1 9 9 0 17 -3 19 -12 6z"/>
<path d="M2131 2863 c-7 -8 -10 -17 -7 -20 9 -9 29 13 25 25 -2 6 -10 3 -18
-5z"/>
<path d="M2667 2829 c7 -7 15 -10 18 -7 3 3 -2 9 -12 12 -14 6 -15 5 -6 -5z"/>
<path d="M2122 2800 c0 -14 2 -19 5 -12 2 6 2 18 0 25 -3 6 -5 1 -5 -13z"/>
<path d="M2155 2810 c4 -6 11 -8 16 -5 14 9 11 15 -7 15 -8 0 -12 -5 -9 -10z"/>
<path d="M1916 2793 c-6 -14 -5 -15 5 -6 7 7 10 15 7 18 -3 3 -9 -2 -12 -12z"/>
<path d="M2688 2803 c7 -3 16 -2 19 1 4 3 -2 6 -13 5 -11 0 -14 -3 -6 -6z"/>
<path d="M2080 2790 c0 -5 5 -10 10 -10 6 0 10 5 10 10 0 6 -4 10 -10 10 -5 0
-10 -4 -10 -10z"/>
<path d="M4262 2793 c2 -4 -1 -8 -5 -8 -9 0 -31 -34 -32 -50 0 -5 4 -15 10
-22 7 -8 15 -6 28 8 10 10 22 19 27 19 12 0 9 -42 -4 -59 -9 -11 -8 -13 4 -9
8 2 16 15 18 27 3 16 9 21 25 19 12 -2 22 -8 22 -15 0 -6 3 -15 8 -19 4 -4 7
-2 7 4 0 6 8 9 18 6 9 -4 2 3 -16 15 -18 12 -37 21 -43 21 -6 0 -7 5 -4 10 4
6 1 9 -7 8 -7 -2 -12 4 -10 14 2 12 -3 15 -19 11 -15 -4 -20 -2 -15 5 3 6 2
14 -4 17 -6 4 -9 3 -8 -2z"/>
<path d="M2010 2778 c0 -4 -6 -6 -12 -4 -7 1 -10 1 -5 -1 4 -3 7 -11 7 -19 0
-8 5 -14 11 -14 6 0 9 7 5 15 -5 13 5 20 27 16 4 0 7 3 7 8 0 6 -9 9 -20 8
-11 -1 -20 -5 -20 -9z"/>
<path d="M2683 2783 c-7 -2 -13 -16 -13 -29 0 -13 -5 -24 -12 -24 -6 0 -8 -3
-5 -7 4 -3 3 -11 -2 -17 -6 -8 4 -12 32 -14 39 -3 41 -2 22 12 -11 9 -16 16
-11 16 5 0 3 6 -4 14 -9 12 -7 17 9 28 34 21 22 37 -16 21z"/>
<path d="M4330 2780 c0 -5 5 -10 10 -10 6 0 10 5 10 10 0 6 -4 10 -10 10 -5 0
-10 -4 -10 -10z"/>
<path d="M4395 2770 c-3 -5 -1 -10 4 -10 6 0 11 5 11 10 0 6 -2 10 -4 10 -3 0
-8 -4 -11 -10z"/>
<path d="M1940 2730 c0 -5 5 -10 10 -10 6 0 10 5 10 10 0 6 -4 10 -10 10 -5 0
-10 -4 -10 -10z"/>
<path d="M2715 2720 c-3 -5 -1 -10 4 -10 6 0 11 5 11 10 0 6 -2 10 -4 10 -3 0
-8 -4 -11 -10z"/>
<path d="M2076 2684 c-4 -10 -1 -14 6 -12 15 5 23 28 10 28 -5 0 -13 -7 -16
-16z"/>
<path d="M2145 2676 c11 -8 16 -19 12 -30 -6 -15 -3 -14 19 3 15 11 30 18 34
16 5 -3 12 0 15 5 5 8 -5 9 -30 4 -27 -5 -36 -4 -31 5 5 7 -1 11 -15 11 -22 0
-22 -1 -4 -14z"/>
<path d="M4318 2669 c-10 -5 -18 -20 -18 -32 -1 -21 -2 -20 -18 6 -24 38 -35
34 -29 -13 4 -36 1 -42 -22 -55 -14 -8 -21 -14 -14 -15 6 0 11 -9 10 -20 -1
-15 -7 -19 -24 -15 -31 5 -29 -1 5 -19 22 -11 29 -12 39 0 8 8 9 15 3 19 -6 3
-10 12 -10 18 0 8 3 9 8 1 4 -6 15 -13 25 -17 22 -8 22 -21 0 -43 -16 -16 -16
-16 6 -9 20 6 23 4 18 -10 -4 -9 -7 -19 -7 -21 0 -3 -6 -2 -12 2 -9 5 -9 2 1
-9 14 -18 36 -24 26 -7 -3 6 3 10 14 10 10 0 22 6 24 13 4 9 8 9 15 -2 15 -21
24 3 16 44 -3 19 -10 32 -16 29 -5 -3 -6 -14 -3 -23 4 -12 -2 -21 -19 -29 -23
-10 -24 -8 -31 25 -4 23 -2 40 6 47 9 8 10 6 6 -11 -3 -14 1 -27 11 -35 14
-11 15 -10 9 6 -5 12 -3 23 5 28 10 6 10 8 -1 8 -11 0 -9 4 5 15 19 15 19 15
-1 8 -18 -6 -19 -5 -6 11 8 10 23 15 33 13 10 -3 18 -1 18 4 0 5 -9 9 -19 9
-10 0 -21 6 -24 14 -6 15 15 39 26 31 4 -3 4 -2 1 2 -3 4 -13 8 -22 8 -9 0
-16 6 -14 13 2 14 2 14 -20 1z"/>
<path d="M2427 2609 c7 -7 15 -10 18 -7 3 3 -2 9 -12 12 -14 6 -15 5 -6 -5z"/>
<path d="M2195 2590 c-3 -5 -1 -10 4 -10 6 0 11 5 11 10 0 6 -2 10 -4 10 -3 0
-8 -4 -11 -10z"/>
<path d="M2030 2560 c0 -13 11 -13 30 0 12 8 11 10 -7 10 -13 0 -23 -4 -23
-10z"/>
<path d="M2385 2550 c3 -5 8 -10 11 -10 2 0 4 5 4 10 0 6 -5 10 -11 10 -5 0
-7 -4 -4 -10z"/>
<path d="M2360 2490 c6 -11 12 -20 14 -20 2 0 2 9 -1 20 -3 11 -9 20 -15 20
-5 0 -4 -9 2 -20z"/>
<path d="M4400 2499 c13 -6 34 -18 45 -27 19 -16 19 -16 5 3 -21 28 -32 35
-55 34 -17 0 -16 -2 5 -10z"/>
<path d="M4403 2450 c-32 -13 -29 -30 5 -29 15 0 21 3 14 6 -10 4 -10 8 -1 19
13 16 12 16 -18 4z"/>
<path d="M4317 2416 c-3 -8 2 -16 14 -19 16 -4 18 -3 9 8 -8 10 -7 14 2 18 9
4 8 6 -3 6 -9 1 -19 -5 -22 -13z"/>
<path d="M4435 2398 c-4 -13 -7 -27 -6 -31 1 -5 -4 -7 -11 -4 -7 2 -12 11 -12
19 1 11 -7 15 -22 14 -13 0 -24 -6 -24 -13 0 -7 6 -10 14 -7 11 4 13 0 9 -17
-4 -13 -8 -18 -11 -11 -2 7 -8 10 -12 7 -5 -3 -14 3 -19 14 -9 16 -14 18 -35
8 -24 -12 -43 -47 -25 -47 5 0 9 6 9 14 0 8 7 16 15 20 9 3 15 0 15 -10 0 -8
4 -13 9 -9 5 3 16 -2 24 -10 14 -13 17 -13 31 0 18 18 26 19 26 3 0 -7 14 -14
30 -15 17 -1 30 2 30 7 0 6 -12 11 -27 11 -23 1 -24 2 -6 6 12 2 21 11 21 21
0 9 1 23 3 31 7 24 -18 23 -26 -1z"/>
<path d="M2126 2331 c-4 -5 -2 -12 3 -15 5 -4 12 -2 15 3 4 5 2 12 -3 15 -5 4
-12 2 -15 -3z"/>
<path d="M4307 2323 c-9 -2 -15 -9 -12 -14 4 -5 1 -9 -5 -9 -6 0 -8 -4 -5 -10
3 -5 1 -10 -5 -10 -5 0 4 -13 22 -29 24 -22 28 -29 15 -27 -10 1 -22 8 -26 15
-6 9 -10 8 -15 -5 -4 -11 -2 -20 3 -22 22 -7 10 -24 -14 -20 -14 3 -25 1 -25
-3 0 -9 27 -13 68 -9 12 1 22 -3 22 -9 0 -6 7 -8 16 -4 14 5 12 9 -10 20 -29
15 -36 29 -9 19 10 -4 14 -4 11 0 -12 12 12 44 32 44 11 0 20 -4 20 -10 0 -5
7 -7 16 -3 12 4 15 0 12 -17 -1 -13 -9 -25 -17 -28 -9 -3 -11 0 -6 8 5 9 4 11
-3 6 -14 -8 2 -46 19 -46 6 0 8 -9 4 -21 -5 -15 -4 -19 5 -14 9 6 9 3 1 -14
-9 -16 -8 -27 3 -48 9 -17 16 -22 17 -13 1 8 4 26 6 40 2 14 4 44 4 68 0 23 5
42 10 42 5 0 9 9 9 21 0 11 -5 17 -10 14 -6 -4 -8 -11 -5 -16 4 -5 2 -9 -3 -9
-6 0 -12 7 -16 15 -3 8 -1 14 5 12 14 -3 35 30 26 40 -4 4 -17 2 -28 -5 -18
-11 -21 -11 -26 7 -3 12 -11 17 -19 14 -8 -3 -12 -8 -9 -13 2 -4 -7 -5 -22 -2
-16 3 -24 1 -20 -6 11 -17 -17 -21 -33 -4 -13 14 -12 15 3 9 9 -3 17 -2 17 2
0 5 -6 11 -12 14 -7 2 -9 8 -5 13 4 4 17 3 27 -4 24 -15 40 -15 40 -1 0 5 -4
8 -9 5 -5 -3 -11 1 -15 9 -5 15 -16 17 -49 8z"/>
<path d="M1745 2260 c4 -6 11 -8 16 -5 14 9 11 15 -7 15 -8 0 -12 -5 -9 -10z"/>
<path d="M1985 2240 c-3 -5 -3 -10 2 -11 28 -3 50 -7 64 -13 10 -4 18 -2 21 6
4 8 -3 13 -16 13 -11 1 -31 4 -43 8 -12 5 -24 3 -28 -3z"/>
<path d="M1933 2213 c-13 -2 -23 -9 -23 -14 0 -5 0 -11 0 -14 0 -3 3 -4 8 -2
4 1 6 6 4 10 -1 5 6 6 17 2 12 -3 21 0 25 10 3 8 2 14 -2 14 -4 -1 -17 -4 -29
-6z"/>
<path d="M1840 2170 c0 -5 7 -7 15 -4 8 4 15 8 15 10 0 2 -7 4 -15 4 -8 0 -15
-4 -15 -10z"/>
<path d="M1971 2164 c0 -11 3 -14 6 -6 3 7 2 16 -1 19 -3 4 -6 -2 -5 -13z"/>
<path d="M3486 2165 c5 -13 2 -14 -20 -5 -17 6 -26 6 -26 0 0 -6 7 -10 16 -10
13 0 14 -3 5 -14 -8 -10 -23 -13 -47 -9 -23 4 -34 2 -34 -6 0 -7 4 -10 8 -7 4
2 14 1 21 -3 10 -6 10 -13 2 -28 -5 -11 -8 -23 -5 -26 3 -3 -4 -3 -17 0 -18 5
-21 3 -16 -11 4 -9 3 -14 -2 -11 -5 3 -12 1 -16 -5 -3 -5 3 -10 13 -10 19 0
38 -27 27 -38 -3 -3 -5 1 -5 8 0 11 -3 11 -12 2 -10 -10 -10 -15 2 -22 20 -13
30 -12 30 1 0 5 5 7 10 4 16 -10 12 -25 -7 -25 -19 0 -12 -10 10 -14 8 -1 21
-6 28 -12 8 -6 21 -10 29 -9 8 0 20 -4 26 -10 14 -11 7 -28 -7 -20 -5 4 -9 -1
-9 -11 0 -14 -2 -15 -17 -3 -15 13 -15 12 -5 -8 12 -21 26 -24 49 -10 16 10
22 -4 12 -28 -4 -11 -8 -15 -8 -9 -1 6 -8 11 -17 11 -12 0 -10 -5 7 -19 13
-10 34 -17 47 -15 13 3 26 -2 32 -12 8 -13 9 -12 10 7 0 12 5 22 11 22 5 0 7
5 4 11 -4 6 -13 8 -20 5 -9 -3 -12 2 -10 16 3 14 -5 30 -21 45 -15 13 -23 27
-19 31 4 4 10 1 12 -5 9 -25 21 -13 19 19 -1 26 4 33 24 39 22 6 21 7 -10 8
-31 1 -35 4 -37 29 -1 15 -4 40 -7 55 -3 15 0 27 6 27 5 0 7 -7 4 -16 -3 -9
-2 -12 5 -9 5 4 7 15 4 25 -3 10 -1 21 5 25 13 8 13 25 0 25 -5 0 -10 -7 -10
-15 0 -10 -10 -15 -32 -15 -30 0 -31 1 -13 14 11 8 24 12 30 9 15 -7 -28 27
-47 38 -14 7 -16 6 -12 -6z m24 -20 c0 -2 -10 -9 -22 -15 -22 -11 -22 -10 -4
4 21 17 26 19 26 11z m-52 -53 c2 -7 -4 -15 -13 -18 -20 -8 -27 -1 -19 20 7
18 25 17 32 -2z m32 -147 c0 -8 -7 -15 -15 -15 -8 0 -15 5 -15 11 0 5 5 7 10
4 6 -3 10 -1 10 4 0 6 2 11 5 11 3 0 5 -7 5 -15z m57 -11 c-3 -3 -12 -4 -19
-1 -8 3 -5 6 6 6 11 1 17 -2 13 -5z"/>
<path d="M4362 2163 c-8 -8 -11 -20 -8 -28 3 -8 1 -17 -4 -20 -6 -4 -10 1 -10
10 0 9 -4 13 -10 10 -15 -10 -12 -23 8 -29 10 -3 18 -15 19 -26 1 -16 -2 -18
-23 -10 -14 6 -23 6 -20 1 8 -12 -23 -25 -51 -22 -24 3 -28 -5 -14 -28 5 -8
14 -10 21 -6 9 5 11 4 6 -3 -9 -14 -5 -15 28 -2 34 12 26 -9 -15 -39 -16 -12
-28 -25 -26 -29 3 -4 1 -16 -3 -27 -7 -18 -9 -17 -20 13 -14 37 -18 38 -37 15
-8 -10 -12 -12 -8 -5 9 17 -10 15 -25 -3 -7 -8 -11 -15 -9 -16 25 -5 49 -4 49
3 0 5 4 6 10 3 6 -4 4 -16 -6 -31 -13 -19 -13 -23 -3 -19 8 3 20 -4 27 -16 8
-12 9 -18 3 -14 -6 3 -11 1 -11 -4 0 -6 -4 -11 -10 -11 -5 0 -10 7 -10 15 0
18 -31 20 -48 3 -15 -15 -16 -3 -1 24 14 26 4 35 -16 15 -19 -20 -19 -61 0
-77 24 -20 18 -30 -17 -31 l-33 -1 33 -8 c34 -8 54 -20 34 -20 -22 0 -13 -36
9 -37 21 -2 21 -1 3 12 -17 12 -17 14 -3 20 11 4 15 14 12 26 -3 11 0 19 6 19
7 0 11 -6 10 -12 -1 -7 -1 -26 0 -41 1 -24 4 -27 21 -22 12 4 20 2 20 -5 0 -6
5 -8 10 -5 6 3 10 10 10 16 0 5 -4 9 -10 9 -18 0 -45 35 -42 53 5 26 -15 46
-41 41 -19 -4 -19 -3 3 6 21 9 28 8 42 -10 10 -12 15 -27 11 -34 -3 -6 3 -3
14 7 21 18 35 14 26 -9 -9 -24 17 -84 38 -84 19 0 44 37 51 75 1 11 8 23 13
27 7 5 6 14 -2 27 -7 11 -9 22 -5 25 4 2 9 19 10 38 2 18 10 40 19 48 9 8 13
10 9 3 -3 -6 -2 -14 4 -18 8 -5 13 10 9 28 0 1 7 19 16 40 9 21 11 37 5 37 -5
0 -10 7 -10 15 0 8 -4 15 -8 15 -15 0 -30 -22 -25 -36 3 -8 1 -14 -4 -14 -15
0 -13 38 3 44 18 7 18 36 0 36 -19 0 -27 25 -13 39 6 6 7 11 2 11 -6 0 -5 4 2
8 7 4 9 13 5 19 -5 7 -11 6 -20 -4z m52 -149 c3 -8 2 -12 -4 -9 -6 3 -10 10
-10 16 0 14 7 11 14 -7z m-66 -18 c-7 -8 -15 -12 -17 -11 -5 6 10 25 20 25 5
0 4 -6 -3 -14z m45 -21 c-3 -9 -8 -14 -10 -11 -3 3 -2 9 2 15 9 16 15 13 8 -4z
m-23 -3 c0 -13 -12 -22 -22 -16 -10 6 -1 24 13 24 5 0 9 -4 9 -8z m-75 -22
c-3 -5 -1 -10 6 -10 7 0 10 -3 6 -6 -9 -9 -28 6 -22 17 4 5 8 9 11 9 3 0 2 -4
-1 -10z m28 -46 c-2 -7 -13 -10 -24 -7 -27 7 -24 18 5 18 13 0 22 -5 19 -11z
m17 -77 c0 -10 -4 -16 -9 -13 -5 3 -8 17 -8 32 0 18 2 22 8 13 5 -8 9 -22 9
-32z m-41 6 c-10 -11 -14 -11 -20 -1 -14 21 -10 26 11 21 16 -4 18 -8 9 -20z
m11 -27 c0 -11 -19 -15 -25 -6 -3 5 1 10 9 10 9 0 16 -2 16 -4z m-20 -36 c0
-5 -4 -10 -10 -10 -5 0 -10 5 -10 10 0 6 5 10 10 10 6 0 10 -4 10 -10z m35
-30 c-3 -5 -12 -10 -18 -10 -7 0 -6 4 3 10 19 12 23 12 15 0z"/>
<path d="M1805 2130 c3 -5 8 -10 11 -10 2 0 4 5 4 10 0 6 -5 10 -11 10 -5 0
-7 -4 -4 -10z"/>
<path d="M4280 2110 c0 -6 7 -10 15 -10 8 0 15 2 15 4 0 2 -7 6 -15 10 -8 3
-15 1 -15 -4z"/>
<path d="M4380 2109 c0 -5 5 -7 10 -4 6 3 10 8 10 11 0 2 -4 4 -10 4 -5 0 -10
-5 -10 -11z"/>
<path d="M3375 2090 c3 -6 1 -10 -6 -10 -7 0 -10 -3 -6 -6 3 -3 13 -2 22 4 16
8 16 9 1 15 -10 4 -15 3 -11 -3z"/>
<path d="M4220 2090 c0 -5 5 -10 10 -10 6 0 10 5 10 10 0 6 -4 10 -10 10 -5 0
-10 -4 -10 -10z"/>
<path d="M1590 2080 c0 -5 5 -10 11 -10 5 0 7 5 4 10 -3 6 -8 10 -11 10 -2 0
-4 -4 -4 -10z"/>
<path d="M1390 2008 c0 -27 15 -34 32 -17 14 15 15 18 1 23 -23 9 -33 7 -33
-6z"/>
<path d="M4150 2008 c0 -4 4 -8 9 -8 6 0 12 4 15 8 3 5 -1 9 -9 9 -8 0 -15 -4
-15 -9z"/>
<path d="M1258 2003 c7 -3 16 -2 19 1 4 3 -2 6 -13 5 -11 0 -14 -3 -6 -6z"/>
<path d="M1485 2000 c-3 -5 1 -10 9 -10 9 0 16 5 16 10 0 6 -4 10 -9 10 -6 0
-13 -4 -16 -10z"/>
<path d="M1018 1993 c7 -3 16 -2 19 1 4 3 -2 6 -13 5 -11 0 -14 -3 -6 -6z"/>
<path d="M1210 1989 c0 -5 5 -7 10 -4 6 3 10 8 10 11 0 2 -4 4 -10 4 -5 0 -10
-5 -10 -11z"/>
<path d="M4196 1981 c-4 -7 -5 -15 -2 -18 9 -9 19 4 14 18 -4 11 -6 11 -12 0z"/>
<path d="M1237 1964 c-10 -10 5 -34 22 -34 13 0 13 2 2 9 -7 5 -10 14 -7 20 7
11 -6 16 -17 5z"/>
<path d="M965 1950 c3 -5 11 -10 16 -10 6 0 7 5 4 10 -3 6 -11 10 -16 10 -6 0
-7 -4 -4 -10z"/>
<path d="M4071 1941 c-11 -7 -10 -10 5 -14 13 -3 9 -5 -11 -7 -26 -1 -27 -3
-10 -10 11 -5 15 -9 9 -9 -17 -1 -9 -60 10 -79 17 -16 17 -16 14 3 -2 11 -7
23 -13 27 -6 5 -4 8 5 8 12 0 12 2 2 8 -18 12 -4 42 20 42 14 0 18 5 14 16 -3
9 -6 18 -6 20 0 7 -24 4 -39 -5z"/>
<path d="M1325 1930 c-3 -5 -1 -10 4 -10 6 0 11 5 11 10 0 6 -2 10 -4 10 -3 0
-8 -4 -11 -10z"/>
<path d="M3599 1905 c4 -17 6 -18 9 -2 2 9 8 15 13 11 5 -3 6 -10 3 -16 -4 -7
-2 -8 4 -4 16 10 3 35 -17 33 -13 -1 -17 -7 -12 -22z"/>
<path d="M3677 1879 c-24 -25 -32 -39 -22 -39 17 0 21 -16 4 -22 -7 -2 -7 -12
0 -31 9 -23 8 -27 -7 -28 -9 -1 -21 -2 -27 -4 -5 -1 -18 -3 -27 -3 -10 -1 -18
-7 -18 -12 0 -7 7 -7 21 1 15 8 24 8 32 0 14 -14 60 -15 52 -1 -3 6 -1 10 6
10 7 0 9 -10 7 -25 -4 -17 -1 -25 9 -25 8 0 11 5 7 11 -4 8 0 9 15 4 15 -5 21
-2 21 10 0 9 -4 13 -10 10 -13 -8 -13 1 0 26 6 10 17 19 25 19 8 0 15 4 15 10
0 5 -8 6 -17 3 -17 -7 -17 -6 -1 10 17 17 14 52 -3 41 -5 -3 -9 0 -9 5 0 6 5
11 10 11 6 0 10 4 10 10 0 5 -6 7 -14 4 -8 -3 -17 0 -22 7 -4 8 -3 10 4 5 7
-4 12 -3 12 1 0 5 -8 13 -17 19 -15 9 -25 4 -56 -27z"/>
<path d="M1225 1900 c-3 -6 1 -7 9 -4 18 7 21 14 7 14 -6 0 -13 -4 -16 -10z"/>
<path d="M1640 1899 c0 -5 5 -7 10 -4 6 3 10 8 10 11 0 2 -4 4 -10 4 -5 0 -10
-5 -10 -11z"/>
<path d="M3999 1863 c-13 -16 -12 -17 4 -4 16 13 21 21 13 21 -2 0 -10 -8 -17
-17z"/>
<path d="M3900 1850 c0 -5 4 -10 9 -10 6 0 13 5 16 10 3 6 -1 10 -9 10 -9 0
-16 -4 -16 -10z"/>
<path d="M4011 1823 c0 -5 3 -15 7 -24 6 -13 9 -14 18 -5 9 10 7 16 -7 24 -11
7 -19 9 -18 5z"/>
<path d="M3780 1809 c0 -5 9 -9 20 -9 11 0 20 2 20 4 0 2 -9 6 -20 9 -11 3
-20 1 -20 -4z"/>
<path d="M1175 1800 c3 -5 8 -10 11 -10 2 0 4 5 4 10 0 6 -5 10 -11 10 -5 0
-7 -4 -4 -10z"/>
<path d="M3970 1795 c0 -13 -4 -14 -21 -4 -16 8 -24 8 -33 -2 -8 -9 -8 -10 1
-5 6 3 19 -1 28 -11 14 -14 18 -14 26 -2 9 15 12 39 4 39 -3 0 -5 -7 -5 -15z"/>
<path d="M1190 1780 c-9 -6 -10 -10 -3 -10 6 0 18 -2 26 -5 8 -4 14 0 14 10 0
17 -15 19 -37 5z"/>
<path d="M3790 1779 c0 -5 5 -7 10 -4 6 3 10 8 10 11 0 2 -4 4 -10 4 -5 0 -10
-5 -10 -11z"/>
<path d="M4033 1770 c-13 -10 -23 -23 -23 -28 0 -6 -8 -12 -17 -14 -15 -3 -14
-5 4 -10 12 -3 22 -3 21 1 -2 19 4 29 22 34 15 4 20 0 20 -13 0 -11 4 -21 9
-24 5 -3 8 5 7 19 0 14 -4 25 -8 25 -3 0 -8 6 -10 14 -2 12 -7 11 -25 -4z"/>
<path d="M1125 1771 c-3 -5 -1 -12 5 -16 5 -3 10 1 10 9 0 18 -6 21 -15 7z"/>
<path d="M1241 1766 c-1 -16 -7 -18 -36 -13 -31 5 -35 3 -35 -15 0 -18 2 -19
17 -7 9 8 14 9 10 3 -9 -15 53 -28 67 -14 8 8 7 13 0 18 -7 4 -14 16 -17 27
-4 18 -5 18 -6 1z"/>
<path d="M3500 1766 c0 -2 7 -6 15 -10 8 -3 15 -1 15 4 0 6 -7 10 -15 10 -8 0
-15 -2 -15 -4z"/>
<path d="M3763 1757 c0 -7 12 -21 25 -31 l25 -19 -19 31 c-19 34 -31 41 -31
19z"/>
<path d="M3810 1755 c0 -8 7 -15 15 -15 9 0 12 6 9 15 -4 8 -10 15 -15 15 -5
0 -9 -7 -9 -15z"/>
<path d="M4096 1748 c-8 -25 -2 -48 11 -48 10 0 11 5 3 19 -14 26 -13 31 5 25
8 -4 15 -1 15 5 0 15 -30 14 -34 -1z"/>
<path d="M1060 1740 c0 -5 7 -10 16 -10 8 0 12 5 9 10 -3 6 -10 10 -16 10 -5
0 -9 -4 -9 -10z"/>
<path d="M3610 1716 c0 -9 5 -16 10 -16 6 0 10 4 10 9 0 6 -4 13 -10 16 -5 3
-10 -1 -10 -9z"/>
<path d="M1035 1710 c-3 -5 -1 -10 4 -10 6 0 11 5 11 10 0 6 -2 10 -4 10 -3 0
-8 -4 -11 -10z"/>
<path d="M3763 1695 c0 -10 6 -14 14 -10 8 3 17 5 19 5 3 0 2 5 -1 10 -10 16
-32 12 -32 -5z"/>
<path d="M1160 1689 c0 -5 5 -7 10 -4 6 3 10 8 10 11 0 2 -4 4 -10 4 -5 0 -10
-5 -10 -11z"/>
<path d="M3996 1685 c-11 -8 -15 -15 -9 -15 7 0 15 5 18 10 4 6 11 8 16 5 5
-4 9 -1 9 4 0 15 -11 13 -34 -4z"/>
<path d="M4225 1670 c-7 -23 2 -43 16 -34 5 3 9 2 8 -3 -4 -21 2 -33 16 -33
13 0 16 5 15 25 -1 3 6 12 14 21 22 22 10 40 -29 42 -26 2 -35 -2 -40 -18z"/>
<path d="M1273 1673 c9 -2 17 -9 17 -14 0 -6 5 -7 11 -3 14 8 -8 24 -31 23
-11 -1 -10 -3 3 -6z"/>
<path d="M3695 1664 l-30 -13 27 -1 c15 0 30 5 33 11 11 16 2 17 -30 3z"/>
<path d="M1110 1661 c0 -6 5 -13 10 -16 6 -3 10 1 10 9 0 9 -4 16 -10 16 -5 0
-10 -4 -10 -9z"/>
<path d="M4020 1661 c0 -6 -7 -11 -15 -11 -8 0 -15 -4 -15 -9 0 -17 12 -41 21
-41 4 0 6 7 3 15 -6 15 0 17 43 18 14 0 19 5 16 13 -3 8 -9 14 -13 14 -5 0
-15 3 -24 6 -9 3 -16 1 -16 -5z"/>
<path d="M1230 1650 c8 -5 20 -10 25 -10 6 0 3 5 -5 10 -8 5 -19 10 -25 10 -5
0 -3 -5 5 -10z"/>
<path d="M1260 1630 c-13 -8 -12 -10 3 -10 9 0 17 5 17 10 0 12 -1 12 -20 0z"/>
<path d="M3959 1621 c7 -5 9 -11 4 -14 -5 -3 -8 -20 -7 -37 2 -27 0 -30 -19
-24 -12 4 -18 3 -14 -2 4 -4 -7 -16 -25 -27 -18 -10 -25 -16 -15 -13 9 3 17 1
17 -4 0 -5 -9 -12 -20 -15 -11 -3 -20 -15 -20 -25 0 -16 8 -18 63 -17 47 2 69
7 83 21 19 18 19 18 -3 12 -17 -6 -23 -3 -23 8 0 10 6 13 15 10 13 -5 14 -2 5
21 -6 15 -8 30 -5 33 10 10 35 11 35 1 0 -4 7 -6 15 -3 12 5 13 9 4 21 -7 7
-18 12 -25 9 -7 -3 -15 0 -18 7 -3 9 -5 9 -5 0 -1 -7 -6 -13 -12 -13 -5 0 -7
4 -4 10 8 13 -13 50 -28 50 -8 0 -8 -3 2 -9z m-11 -119 c23 -21 9 -22 -18 -1
-14 11 -18 18 -10 17 8 -2 21 -9 28 -16z"/>
<path d="M4206 1599 c-14 -17 -20 -19 -33 -7 -15 12 -15 11 -4 -11 8 -15 9
-21 2 -17 -6 4 -11 1 -11 -8 0 -8 -4 -17 -9 -20 -5 -4 -7 13 -5 36 3 33 2 38
-5 22 -11 -24 -42 -36 -62 -23 -10 6 -7 9 10 9 25 0 22 12 -4 16 -24 3 -27
-13 -10 -46 9 -17 13 -36 9 -43 -4 -7 -4 -9 1 -5 4 4 17 2 28 -3 15 -8 22 -8
28 2 4 7 11 10 16 6 7 -7 -8 -22 -30 -30 -16 -5 5 -36 21 -31 14 5 13 3 -2
-10 -22 -18 -38 -12 -29 11 4 11 3 14 -5 9 -7 -4 -12 -2 -12 6 0 7 -16 -4 -35
-24 -21 -23 -32 -43 -29 -53 3 -8 11 -12 18 -9 6 3 3 -1 -7 -9 -15 -13 -16
-15 -2 -21 17 -6 20 -37 5 -52 -7 -7 -6 -11 3 -11 13 0 21 41 19 104 -1 25 3
31 18 30 13 -1 16 -5 10 -17 -13 -24 -13 -32 2 -41 19 -12 25 -11 31 5 4 10 1
13 -9 9 -7 -3 -14 0 -14 6 0 6 8 11 18 11 23 0 40 12 44 30 2 8 10 21 18 28 8
8 9 11 3 7 -8 -4 -13 0 -13 9 0 9 6 13 14 10 8 -3 21 10 35 36 24 46 26 68 7
92 -12 16 -14 16 -30 -3z m24 -44 c0 -8 -4 -15 -10 -15 -5 0 -7 7 -4 15 4 8 8
15 10 15 2 0 4 -7 4 -15z"/>
<path d="M1263 1575 c-3 -9 -3 -18 -1 -21 3 -3 8 4 11 16 6 23 -1 27 -10 5z"/>
<path d="M4033 1517 c19 -8 26 -16 22 -27 -5 -12 -4 -13 6 -2 16 15 -1 35 -33
38 -19 2 -19 0 5 -9z"/>
<path d="M3700 1480 c0 -5 5 -10 10 -10 6 0 10 5 10 10 0 6 -4 10 -10 10 -5 0
-10 -4 -10 -10z"/>
<path d="M4030 1444 c0 -8 -4 -13 -9 -9 -5 3 -12 1 -15 -4 -4 -5 -22 -7 -41
-4 -24 4 -35 2 -35 -6 0 -8 8 -10 21 -6 14 5 19 3 15 -3 -3 -6 -2 -13 4 -17 5
-3 10 -1 10 5 0 7 7 9 17 6 10 -4 14 -4 10 0 -4 4 6 13 23 20 31 14 41 34 15
34 -8 0 -15 -7 -15 -16z"/>
<path d="M2336 1441 c-3 -5 4 -11 16 -14 29 -8 32 -4 8 11 -10 6 -21 8 -24 3z"/>
<path d="M1320 1430 c0 -12 28 -21 35 -11 2 5 -4 11 -15 14 -11 3 -20 2 -20
-3z"/>
<path d="M3835 1390 c21 -24 26 -25 19 -6 -3 8 -13 17 -22 21 -13 5 -13 2 3
-15z"/>
<path d="M3787 1382 c-16 -7 -16 -10 -3 -27 8 -11 12 -30 9 -42 -4 -19 -1 -23
20 -23 14 0 28 4 31 9 4 5 -3 7 -14 4 -11 -3 -20 0 -20 6 0 6 5 11 10 11 7 0
7 7 0 20 -6 11 -15 18 -21 15 -5 -4 -9 -2 -9 4 0 5 8 15 18 20 19 12 6 13 -21
3z"/>
<path d="M2460 1369 c0 -5 5 -7 10 -4 6 3 10 8 10 11 0 2 -4 4 -10 4 -5 0 -10
-5 -10 -11z"/>
<path d="M2575 1370 c3 -5 2 -10 -3 -10 -5 0 -9 -15 -9 -32 0 -18 2 -27 5 -20
2 6 13 12 24 12 16 0 18 -3 9 -14 -9 -11 -9 -16 0 -22 8 -4 9 -3 5 4 -4 7 -3
12 3 12 6 0 9 13 8 29 -1 16 -5 27 -8 25 -4 -2 -9 3 -13 11 -3 8 -10 15 -16
15 -6 0 -8 -4 -5 -10z"/>
<path d="M2688 1363 c-19 -3 -25 -9 -21 -19 3 -9 12 -12 25 -8 10 3 24 2 31
-3 14 -11 37 -11 37 0 0 31 0 32 -8 19 -5 -7 -16 -10 -25 -6 -9 3 -14 10 -11
15 3 5 4 8 2 8 -2 -1 -15 -4 -30 -6z"/>
<path d="M2205 1340 c3 -5 8 -10 11 -10 2 0 4 5 4 10 0 6 -5 10 -11 10 -5 0
-7 -4 -4 -10z"/>
<path d="M4037 1333 c-4 -3 -7 -11 -7 -17 0 -6 5 -5 12 2 6 6 9 14 7 17 -3 3
-9 2 -12 -2z"/>
<path d="M3956 1319 c3 -5 -2 -22 -11 -38 -19 -38 -19 -45 1 -37 8 3 13 2 10
-3 -3 -5 -15 -11 -26 -14 -11 -3 -18 -1 -15 3 3 5 1 11 -5 15 -5 3 -10 0 -10
-7 0 -8 -5 -6 -11 5 -5 9 -15 17 -20 17 -6 0 -7 -4 -4 -10 3 -5 -1 -10 -9 -10
-9 0 -16 -4 -16 -10 0 -5 -5 -10 -11 -10 -5 0 -8 4 -5 9 3 5 -1 14 -8 20 -12
10 -14 9 -12 -6 2 -10 15 -24 29 -31 30 -15 35 -30 12 -38 -22 -9 -18 -31 8
-39 13 -4 17 -8 10 -12 -7 -2 -13 -11 -13 -19 0 -19 -19 -18 -26 1 -4 8 -10
13 -14 10 -11 -7 -20 19 -14 42 4 13 0 20 -10 20 -12 0 -14 -6 -10 -20 4 -14
2 -18 -7 -14 -8 2 -13 10 -11 16 1 6 -5 11 -13 11 -9 0 -12 -6 -8 -15 3 -10 0
-15 -8 -13 -10 2 -13 -5 -11 -22 1 -14 -1 -20 -5 -14 -10 14 -46 27 -38 14 3
-6 1 -10 -5 -10 -7 0 -10 -7 -6 -15 4 -11 0 -14 -17 -11 -12 3 -26 5 -32 6 -5
0 1 7 15 15 l25 14 -25 0 c-14 0 -34 -4 -45 -9 -18 -7 -17 -9 13 -20 19 -7 32
-19 31 -28 0 -10 -3 -12 -5 -6 -3 7 -14 10 -24 7 -11 -3 -20 0 -20 6 0 6 -4
11 -10 11 -6 0 -6 -9 0 -25 10 -26 -1 -42 -21 -29 -7 4 -10 -3 -9 -17 3 -38 1
-42 -16 -28 -9 7 -5 -4 10 -25 31 -46 32 -57 8 -79 -22 -20 -32 -21 -32 -5 0
6 3 8 7 5 7 -8 33 11 33 25 0 5 -5 6 -12 2 -7 -4 -8 -3 -4 5 9 14 -25 59 -41
54 -6 -2 -21 5 -33 17 -11 11 -25 18 -30 15 -6 -4 -7 1 -3 11 5 14 2 16 -18
11 -13 -4 -28 -7 -32 -7 -5 0 -6 -4 -2 -10 3 -5 12 -7 20 -3 11 3 15 -2 15
-18 0 -17 3 -20 9 -11 11 19 15 19 35 3 25 -21 5 -71 -29 -71 -5 0 -3 5 5 11
12 8 12 10 1 7 -17 -5 -26 -49 -9 -45 6 1 15 -9 19 -23 4 -14 7 -19 8 -12 2
24 36 8 39 -18 1 -14 3 -30 4 -36 2 -13 108 45 115 64 3 6 2 20 -1 29 -6 15
-8 15 -16 3 -5 -8 -12 -11 -16 -7 -4 4 1 14 12 22 10 8 14 15 8 15 -7 0 -11
13 -9 33 2 25 7 31 21 29 16 -2 17 -1 4 8 -13 9 -13 11 0 19 8 5 18 7 22 5 4
-3 8 2 8 10 0 9 5 16 10 16 6 0 10 -4 10 -10 0 -5 6 -7 14 -4 7 3 16 -2 19
-10 4 -10 1 -16 -8 -16 -8 0 -12 -6 -10 -12 2 -7 -5 -24 -16 -37 -19 -23 -20
-23 -34 -5 -14 18 -14 18 -15 -7 0 -15 5 -27 13 -26 34 1 48 -4 42 -15 -4 -7
1 -4 10 7 9 11 20 20 25 20 6 0 10 3 10 8 0 30 -1 31 -10 17 -8 -12 -10 -9
-10 13 0 26 5 30 42 30 12 0 15 4 10 16 -10 19 -8 59 3 69 5 4 6 0 2 -9 -3 -9
0 -22 6 -28 8 -8 8 -11 -2 -11 -7 0 -9 -5 -6 -11 4 -6 14 -8 24 -4 13 5 14 4
4 -6 -17 -17 -16 -29 0 -29 16 0 70 56 80 83 4 10 11 16 15 13 5 -3 26 13 47
34 22 22 35 40 30 40 -6 0 1 6 14 13 13 6 37 28 53 48 28 34 29 39 18 78 -6
22 -16 41 -23 42 -7 0 -22 2 -34 3 -12 1 -20 -1 -17 -5z m31 -33 c-3 -7 -1
-18 4 -23 7 -7 5 -12 -5 -16 -12 -5 -16 0 -16 23 0 17 5 30 11 30 6 0 9 -6 6
-14z m-37 -70 c0 -2 -7 -7 -16 -10 -8 -3 -12 -2 -9 4 6 10 25 14 25 6z m-131
-125 c2 -1 -2 -8 -9 -16 -13 -16 -35 -21 -25 -6 3 5 0 13 -6 17 -7 4 -9 3 -6
-2 3 -6 2 -16 -4 -24 -7 -12 -9 -11 -9 6 0 11 2 23 5 26 4 4 34 3 54 -1z m-91
-13 c-8 -36 -68 -57 -68 -24 0 6 -5 4 -10 -4 -8 -12 -10 -10 -10 9 0 22 1 23
25 7 13 -9 28 -16 32 -16 4 0 0 5 -10 11 -9 6 -15 14 -12 20 9 14 55 11 53 -3z
m-153 -129 c11 -17 -1 -21 -15 -4 -8 9 -8 15 -2 15 6 0 14 -5 17 -11z m-54
-22 c-1 -4 -1 -14 -1 -22 0 -9 -6 -12 -16 -8 -11 4 -12 8 -4 13 7 4 9 13 5 20
-5 8 -3 11 4 9 7 -3 12 -8 12 -12z m159 -7 c0 -5 -2 -10 -4 -10 -3 0 -8 5 -11
10 -3 6 -1 10 4 10 6 0 11 -4 11 -10z m-120 -80 c-7 -4 -16 -13 -20 -20 -6 -9
-11 -7 -19 8 -10 18 -9 21 4 16 8 -4 15 -1 15 5 0 6 7 8 16 4 11 -4 12 -8 4
-13z"/>
<path d="M3745 1300 c4 -6 11 -8 16 -5 14 9 11 15 -7 15 -8 0 -12 -5 -9 -10z"/>
<path d="M3870 1293 c0 -6 8 -17 18 -24 16 -13 16 -13 2 6 -8 11 -16 22 -17
24 -2 2 -3 0 -3 -6z"/>
<path d="M2216 1275 c25 -19 40 -19 24 0 -7 8 -20 15 -28 15 -13 0 -12 -3 4
-15z"/>
<path d="M2286 1245 c-3 -8 -1 -15 5 -15 6 0 8 -4 4 -9 -3 -5 -1 -12 3 -15 5
-3 9 5 8 17 -1 12 3 25 9 29 6 5 3 8 -6 8 -9 0 -19 -7 -23 -15z"/>
<path d="M2706 1235 c-3 -8 -3 -22 0 -30 4 -8 1 -22 -6 -30 -7 -9 -10 -18 -6
-22 3 -3 6 -1 6 5 0 26 20 10 21 -15 l1 -28 10 29 c8 22 7 30 -3 37 -11 7 -10
9 4 9 16 0 16 2 2 30 -18 34 -21 36 -29 15z"/>
<path d="M3776 1224 c-7 -28 7 -54 18 -35 4 6 2 11 -3 11 -6 0 -11 5 -11 11 0
5 4 8 9 5 5 -4 7 3 4 14 -7 26 -10 25 -17 -6z"/>
<path d="M3716 1215 c-9 -24 5 -41 16 -20 7 11 7 20 0 27 -6 6 -12 3 -16 -7z"/>
<path d="M2227 1200 c4 -14 0 -20 -11 -20 -9 0 -16 -5 -16 -11 0 -5 5 -7 10
-4 6 3 10 1 10 -4 0 -19 15 -12 26 13 8 18 8 28 1 35 -17 17 -26 13 -20 -9z"/>
<path d="M1336 1195 c7 -17 34 -21 34 -4 0 5 -4 7 -10 4 -5 -3 -10 -1 -10 4 0
6 -4 11 -10 11 -5 0 -7 -7 -4 -15z"/>
<path d="M3410 1180 c-9 -6 -10 -10 -3 -10 6 0 15 5 18 10 8 12 4 12 -15 0z"/>
<path d="M2769 1168 c-8 -7 -13 -12 -11 -11 2 1 14 -2 27 -7 28 -11 39 -2 20
16 -17 17 -18 17 -36 2z"/>
<path d="M3448 1173 c7 -3 16 -2 19 1 4 3 -2 6 -13 5 -11 0 -14 -3 -6 -6z"/>
<path d="M3662 1173 c-7 -3 -17 -14 -23 -26 -9 -18 -9 -20 2 -9 7 6 27 12 44
13 16 0 23 3 15 6 -8 3 -17 9 -20 13 -3 4 -11 5 -18 3z"/>
<path d="M2893 1153 c-7 -2 -13 -13 -13 -23 0 -15 -18 -30 -36 -30 -10 0 3 26
15 31 11 4 9 7 -7 11 -17 5 -22 2 -22 -12 0 -11 -4 -21 -9 -24 -11 -7 -2 -46
10 -46 5 0 6 7 3 15 -4 8 -1 15 5 15 6 0 11 -4 11 -10 0 -5 7 -7 15 -4 8 4 15
12 15 19 0 6 10 17 23 23 21 10 21 11 2 12 -20 1 -20 1 -1 15 19 15 14 19 -11
8z"/>
<path d="M1373 1132 c-13 -2 -23 -8 -23 -13 0 -13 37 -11 45 2 9 14 5 16 -22
11z"/>
<path d="M3565 1130 c-3 -5 -1 -10 4 -10 6 0 11 5 11 10 0 6 -2 10 -4 10 -3 0
-8 -4 -11 -10z"/>
<path d="M3185 1110 c-4 -6 1 -7 11 -3 12 4 15 3 10 -5 -5 -8 -2 -10 8 -6 9 3
13 10 10 15 -7 12 -31 11 -39 -1z"/>
<path d="M2030 1101 c0 -5 9 -7 20 -4 11 3 20 7 20 9 0 2 -9 4 -20 4 -11 0
-20 -4 -20 -9z"/>
<path d="M2098 1098 c5 -5 16 -8 23 -6 8 3 3 7 -10 11 -17 4 -21 3 -13 -5z"/>
<path d="M2720 1090 c0 -11 4 -20 9 -20 5 0 7 9 4 20 -3 11 -7 20 -9 20 -2 0
-4 -9 -4 -20z"/>
<path d="M3283 1080 c-3 -11 -9 -17 -14 -15 -9 6 -49 -16 -49 -27 0 -5 7 -8
15 -8 8 0 15 6 15 14 0 8 7 13 16 12 9 0 20 9 25 22 5 12 6 22 3 22 -3 0 -8
-9 -11 -20z"/>
<path d="M3145 1060 c-3 -5 1 -10 10 -10 9 0 13 5 10 10 -3 6 -8 10 -10 10 -2
0 -7 -4 -10 -10z"/>
<path d="M3406 1057 c-31 -10 -36 -14 -25 -23 8 -7 22 -8 34 -3 11 4 16 8 11
8 -6 1 -1 8 10 16 22 17 21 17 -30 2z"/>
<path d="M1404 1049 c-3 -6 -1 -16 4 -21 8 -8 11 -5 9 11 -1 24 -3 25 -13 10z"/>
<path d="M3180 1046 c0 -8 7 -17 16 -20 13 -5 14 -4 6 7 -7 8 -9 17 -5 20 3 4
1 7 -5 7 -7 0 -12 -6 -12 -14z"/>
<path d="M2875 1030 c-10 -11 -14 -20 -8 -20 5 0 18 9 28 20 10 11 14 20 8 20
-5 0 -18 -9 -28 -20z"/>
<path d="M3465 1030 c-3 -5 -1 -10 4 -10 6 0 11 5 11 10 0 6 -2 10 -4 10 -3 0
-8 -4 -11 -10z"/>
<path d="M2906 1015 c-3 -8 -1 -15 4 -15 6 0 10 7 10 15 0 8 -2 15 -4 15 -2 0
-6 -7 -10 -15z"/>
<path d="M3020 1007 c-12 -21 -12 -21 6 -7 10 8 20 15 22 16 2 1 -1 4 -5 7 -5
3 -15 -4 -23 -16z"/>
<path d="M1397 1000 c3 -11 9 -17 15 -14 5 3 4 12 -3 20 -16 19 -18 18 -12 -6z"/>
<path d="M3155 1010 c3 -5 8 -10 11 -10 2 0 4 5 4 10 0 6 -5 10 -11 10 -5 0
-7 -4 -4 -10z"/>
<path d="M3260 1009 c0 -5 5 -7 10 -4 6 3 10 8 10 11 0 2 -4 4 -10 4 -5 0 -10
-5 -10 -11z"/>
<path d="M2970 990 c-12 -8 -11 -10 8 -10 12 0 22 5 22 10 0 13 -11 13 -30 0z"/>
<path d="M2040 969 c0 -5 10 -9 22 -9 12 0 18 3 14 7 -10 11 -36 12 -36 2z"/>
<path d="M3160 964 c0 -16 9 -18 28 -5 10 6 9 10 -7 14 -14 3 -21 0 -21 -9z"/>
<path d="M3246 965 c-3 -8 4 -21 16 -29 30 -21 34 -12 10 18 -15 20 -21 23
-26 11z"/>
<path d="M3336 972 c-3 -5 1 -9 9 -9 8 0 12 4 9 9 -3 4 -7 8 -9 8 -2 0 -6 -4
-9 -8z"/>
<path d="M1980 960 c0 -5 5 -10 10 -10 6 0 10 5 10 10 0 6 -4 10 -10 10 -5 0
-10 -4 -10 -10z"/>
<path d="M3708 963 c7 -3 16 -2 19 1 4 3 -2 6 -13 5 -11 0 -14 -3 -6 -6z"/>
<path d="M1497 939 c7 -7 15 -10 18 -7 3 3 -2 9 -12 12 -14 6 -15 5 -6 -5z"/>
<path d="M3350 940 c0 -5 5 -10 11 -10 5 0 7 5 4 10 -3 6 -8 10 -11 10 -2 0
-4 -4 -4 -10z"/>
<path d="M3180 910 c6 -11 8 -25 5 -30 -3 -6 -2 -10 4 -10 6 0 8 -7 5 -15 -3
-8 1 -22 10 -30 15 -15 16 -15 16 4 0 12 -4 21 -8 21 -4 0 -8 9 -9 20 -1 14 5
20 20 21 19 0 19 2 -5 11 -16 5 -28 14 -28 19 0 5 -5 9 -10 9 -7 0 -7 -7 0
-20z"/>
<path d="M3230 922 c0 -5 7 -9 15 -9 8 0 12 4 9 9 -3 4 -9 8 -15 8 -5 0 -9 -4
-9 -8z"/>
<path d="M3386 922 c-2 -4 -1 -14 4 -22 7 -11 9 -9 7 8 -1 24 -3 26 -11 14z"/>
<path d="M3137 907 c-2 -6 1 -18 8 -24 10 -9 14 -9 19 2 3 8 1 15 -5 15 -6 0
-7 5 -4 10 3 6 2 10 -3 10 -6 0 -12 -6 -15 -13z"/>
<path d="M3376 877 c3 -10 9 -15 12 -12 3 3 0 11 -7 18 -10 9 -11 8 -5 -6z"/>
<path d="M3100 870 c0 -5 5 -10 11 -10 5 0 7 5 4 10 -3 6 -8 10 -11 10 -2 0
-4 -4 -4 -10z"/>
<path d="M3166 845 c4 -8 8 -15 10 -15 2 0 4 7 4 15 0 8 -4 15 -10 15 -5 0 -7
-7 -4 -15z"/>
<path d="M1933 832 c0 -12 5 -22 9 -22 11 0 10 12 -2 30 -7 12 -9 10 -7 -8z"/>
<path d="M1786 791 c-4 -6 -3 -11 2 -11 5 0 12 -13 15 -30 5 -22 11 -28 23
-23 12 5 13 7 2 14 -7 5 -8 9 -3 9 6 0 6 3 -1 8 -6 4 -15 15 -21 26 -7 12 -13
15 -17 7z"/>
<path d="M1901 791 c-7 -5 -9 -11 -5 -14 5 -3 15 1 22 9 14 16 5 18 -17 5z"/>
<path d="M3196 792 c-2 -4 -1 -14 4 -22 7 -11 9 -9 7 8 -1 24 -3 26 -11 14z"/>
<path d="M3112 641 c-11 -6 -10 -10 0 -19 11 -8 14 -7 14 9 0 10 0 19 -1 19 0
0 -6 -4 -13 -9z"/>
<path d="M3048 609 c-20 -13 19 -23 45 -12 21 10 21 10 -5 15 -15 3 -32 1 -40
-3z"/>
</g>
</svg>
